<svg width="246" height="44" viewBox="0 0 246 44" fill="none" xmlns="http://www.w3.org/2000/svg">
<path d="M12.2826 29.4207V42.6652H0.362305V1.25349H31.4032V11.7767H12.2826V19.2756H29.5883V29.436H12.2826V29.4207Z" fill="#333333"/>
<path d="M54.3065 40.5496C51.7649 42.1827 49.1028 42.8478 46.5616 42.8478C38.0905 42.8478 31.0713 36.014 31.0713 26.9423C31.0713 17.9914 38.0905 11.0972 46.5611 11.0972C49.1028 11.0972 51.7654 11.7623 54.3065 13.3954V11.3387H64.9565V42.6662H54.3065V40.5496ZM41.5396 27.1234C41.5396 30.7524 44.5043 33.6554 48.0136 33.6554C51.5837 33.6554 54.4275 30.7524 54.4275 27.1234C54.4275 23.4346 51.5837 20.592 48.0136 20.592C44.5043 20.592 41.5396 23.4346 41.5396 27.1234V27.1234Z" fill="#333333"/>
<path d="M77.0556 14.2417C78.992 11.9434 82.1992 10.734 85.7085 10.734C93.0303 10.734 97.7503 15.8743 97.7503 23.3737V42.6657H87.0998V25.914C87.0998 22.8902 85.4666 20.5316 82.3196 20.5316C79.4156 20.5316 77.2368 22.6482 77.2368 26.2767V42.6657H66.5879V11.354H77.0556V14.2417Z" fill="#333333"/>
<path d="M127.035 43.5738C114.086 43.5738 104.646 33.9578 104.646 22.044C104.646 10.734 113.541 0.332561 127.398 0.332561C136.898 0.332561 142.949 5.04977 145.611 9.40372L136.232 16.1173C133.812 13.0327 130.968 11.3392 127.095 11.3392C121.226 11.3392 116.869 15.8149 116.869 22.2251C116.869 28.5151 121.468 32.869 127.156 32.869C130.665 32.869 133.509 31.4175 135.325 28.3938H125.824V18.8387H148.395V21.9227C148.395 35.046 138.774 43.5738 127.035 43.5738V43.5738Z" fill="#333333"/>
<path d="M166.082 43.45C156.34 43.45 148.958 36.5558 148.958 27.0007C148.958 17.7474 156.401 10.6112 165.78 10.6112C175.159 10.6112 181.512 17.5662 181.512 26.7581C181.512 26.9398 181.512 29.5404 181.451 30.0847H159.366C160.455 32.9877 162.996 34.802 166.142 34.802C169.168 34.802 171.528 33.3505 173.04 31.4759L180.241 36.4351C177.7 40.1239 172.98 43.4505 166.082 43.4505V43.45ZM171.104 22.9486C170.076 19.9852 167.655 19.0177 165.537 19.0177C162.572 19.0177 160.576 20.5296 159.547 22.9486H171.104Z" fill="#333333"/>
<path d="M206.5 40.5496C203.958 42.1827 201.296 42.8478 198.755 42.8478C190.284 42.8478 183.265 36.014 183.265 26.9423C183.265 17.9914 190.284 11.0972 198.754 11.0972C201.296 11.0972 203.959 11.7623 206.5 13.3954V11.3387H217.15V42.6662H206.5V40.5496ZM193.733 27.1234C193.733 30.7524 196.698 33.6554 200.207 33.6554C203.777 33.6554 206.621 30.7524 206.621 27.1234C206.621 23.4346 203.777 20.592 200.207 20.592C196.698 20.592 193.733 23.4346 193.733 27.1234Z" fill="#333333"/>
<path d="M237.903 21.5574C231.61 21.5574 229.432 24.5812 229.432 29.4191V42.6636H218.782V11.352H229.371V15.0408C231.308 12.5006 234.454 10.9284 237.903 10.9284V21.5574Z" fill="#333333"/>
<path d="M241.943 10.734H239.478V11.5198H240.279V13.9695H241.157V11.5198H241.943V10.734ZM245.937 10.7186H245.06L244.182 12.3062L243.305 10.7186H242.427V13.9541H243.305V12.2913L243.804 13.2737H244.56L245.06 12.2913V13.9541H245.937L245.937 10.7186Z" fill="#333333"/>
</svg>
