<svg width="98" height="98" viewBox="0 0 98 98" fill="none" xmlns="http://www.w3.org/2000/svg">
<circle cx="49" cy="49" r="49" fill="#F6F9F3"/>
<path d="M42.5428 32.5028H57.3257V35.7885H42.5428V32.5028Z" fill="#5DA68B"/>
<path d="M42.5428 41.4514H57.3257V44.7371H42.5428V41.4514Z" fill="#5DA68B"/>
<path d="M42.5428 50.4H57.3257V53.6857H42.5428V50.4Z" fill="#5DA68B"/>
<path d="M35.7771 32.3257C34.9143 32.3257 34.0914 33.08 34.1314 33.9714C34.1714 34.8628 34.8514 35.6171 35.7771 35.6171C36.6343 35.6171 37.4628 34.8628 37.4228 33.9714C37.3828 33.08 36.7028 32.3257 35.7771 32.3257Z" fill="#5DA68B"/>
<path d="M35.7771 41.4514C34.9143 41.4514 34.0914 42.2057 34.1314 43.0971C34.1714 43.9886 34.8514 44.7428 35.7771 44.7428C36.6343 44.7428 37.4628 43.9886 37.4228 43.0971C37.3828 42.2057 36.7028 41.4514 35.7771 41.4514Z" fill="#5DA68B"/>
<path d="M35.7771 50.5771C34.9143 50.5771 34.0914 51.3314 34.1314 52.2228C34.1714 53.1142 34.8514 53.8685 35.7771 53.8685C36.6343 53.8685 37.4628 53.1142 37.4228 52.2228C37.3828 51.3314 36.7028 50.5771 35.7771 50.5771Z" fill="#5DA68B"/>
<path d="M35.7771 59.7028C34.9143 59.7028 34.0914 60.4571 34.1314 61.3485C34.1714 62.24 34.8514 62.9943 35.7771 62.9943C36.6343 62.9943 37.4628 62.24 37.4228 61.3485C37.3828 60.4514 36.7028 59.7028 35.7771 59.7028Z" fill="#5DA68B"/>
<path d="M81 54.3314L78.8915 51.8114L77.2229 53.2057C75.0115 50.36 71.56 48.5257 67.6915 48.5257C67.3829 48.5257 67.0743 48.5371 66.7715 48.56V24.6571C66.7715 22.6228 65.4229 20.8857 63.5715 20.2971C63.1372 20.16 62.6743 20.0857 62.2 20.0857H29.5829C29.1029 20.0857 28.6458 20.16 28.2115 20.2971C26.36 20.8857 25.0115 22.6171 25.0115 24.6571V71.28C25.0115 73.4057 26.4858 75.2 28.4572 75.7029C28.8172 75.7943 29.1943 75.8514 29.5829 75.8514H62.1943C62.5829 75.8514 62.96 75.8 63.32 75.7029C64.8515 75.3143 66.0743 74.1429 66.5543 72.6514L66.6229 72.5829C66.9257 72.6057 67.3829 72.6514 67.6915 72.6514C74.3429 72.6514 79.7543 67.24 79.7543 60.5886C79.7543 59.0057 79.4457 57.4914 78.8857 56.1029L81 54.3314ZM62.2515 72.4114H29.5258C28.9315 72.3829 28.44 71.8743 28.44 71.2743V24.6571C28.44 24.1714 28.7658 23.7486 29.2 23.5886H62.5715C63.0115 23.7486 63.3315 24.1714 63.3315 24.6571V49.3428C59.1943 50.9486 56.1486 54.7714 55.68 59.3486H42.5372V62.6343H55.7943C56.5086 66.8057 59.3772 70.24 63.2058 71.7771C63.0286 72.1371 62.6629 72.3943 62.2515 72.4114ZM67.6857 69.36C67.3772 69.36 67.0686 69.3429 66.7657 69.3086C65.5257 69.1771 64.3715 68.7829 63.3372 68.1943C60.6972 66.68 58.9143 63.84 58.9143 60.5829C58.9143 57.3257 60.6972 54.4857 63.3372 52.9714C64.3715 52.3771 65.5257 51.9886 66.7657 51.8571C67.0686 51.8229 67.3772 51.8057 67.6857 51.8057C70.5486 51.8057 73.0915 53.1829 74.6972 55.3086L67.8686 61.0171L66.7657 60.1314L63.3372 57.3829L62.9486 57.0743L60.8915 59.64L63.3372 61.6L66.7657 64.3486L67.9086 65.2686L76.1772 58.36C76.3657 59.0686 76.4629 59.8171 76.4629 60.5829C76.4629 65.4229 72.5257 69.36 67.6857 69.36Z" fill="#5DA68B"/>
</svg>
