<svg width="98" height="98" viewBox="0 0 98 98" fill="none" xmlns="http://www.w3.org/2000/svg">
<circle cx="49" cy="49" r="49" fill="#F6F9F3"/>
<path d="M49 47.2857C53.3086 47.2857 56.8171 43.7771 56.8171 39.4686C56.8171 35.16 53.3086 31.6514 49 31.6514C44.6914 31.6514 41.1829 35.16 41.1829 39.4686C41.1829 43.7771 44.6914 47.2857 49 47.2857ZM49 44.56C46.1943 44.56 43.9086 42.2743 43.9086 39.4686C43.9086 38.8229 44.0286 38.2 44.2629 37.6057H53.7371C53.9714 38.2 54.0914 38.8286 54.0914 39.4686C54.0914 42.2743 51.8057 44.56 49 44.56ZM46.7943 34.88C48.16 34.2171 49.84 34.2171 51.2057 34.88H46.7943Z" fill="#5DA68B"/>
<path d="M49 72.2057C49.8489 72.2057 50.5371 71.5175 50.5371 70.6686C50.5371 69.8197 49.8489 69.1315 49 69.1315C48.1511 69.1315 47.4629 69.8197 47.4629 70.6686C47.4629 71.5175 48.1511 72.2057 49 72.2057Z" fill="#5DA68B"/>
<path d="M75.4629 61.6H73.7714V38.3943C73.7714 36.36 72.12 34.7086 70.0857 34.7086H62.5886C62.4114 34.2115 62.2057 33.7143 61.9714 33.2343L63.7771 31.4286C64.3771 30.8286 64.3771 29.8572 63.7771 29.2572L59.2114 24.6915C58.6114 24.0915 57.64 24.0915 57.04 24.6915L55.2343 26.4972C54.7543 26.2629 54.2571 26.0572 53.76 25.88V23.3315C53.76 22.4857 53.0686 21.7943 52.2229 21.7943H45.7657C44.92 21.7943 44.2286 22.48 44.2286 23.3315V25.88C43.7314 26.0572 43.2343 26.2629 42.7543 26.4972L40.9486 24.6915C40.3714 24.1143 39.36 24.1143 38.7771 24.6915L34.2114 29.2572C33.6114 29.8572 33.6114 30.8286 34.2114 31.4286L36.0171 33.2343C35.7829 33.7143 35.5771 34.2057 35.4 34.7086H27.9143C25.88 34.7086 24.2286 36.36 24.2286 38.3943V61.6057H22.5371C21.6857 61.6 21 62.2914 21 63.1372V65.8286C21 69.3429 23.8629 72.2057 27.3771 72.2057H44.16C45.0057 72.2057 45.6971 71.5143 45.6971 70.6686C45.6971 69.8229 45.0114 69.1314 44.16 69.1314H27.3771C25.5543 69.1314 24.0686 67.6457 24.0686 65.8229V64.6686H38.0343C38.6857 66.5886 40.4914 67.8972 42.5429 67.8972H55.4571C57.5086 67.8972 59.3143 66.5886 59.9657 64.6686H73.9314V65.8229C73.9314 67.6457 72.4457 69.1314 70.6229 69.1314H53.84C52.9943 69.1314 52.3029 69.8229 52.3029 70.6686C52.3029 71.5143 52.9943 72.2057 53.84 72.2057H70.6229C74.1429 72.2057 77 69.3429 77 65.8286V63.1372C77 62.2914 76.3086 61.6 75.4629 61.6ZM57.1486 63.1372C57.1486 64.0686 56.3886 64.8286 55.4571 64.8286H42.5429C41.6114 64.8286 40.8514 64.0686 40.8514 63.1372C40.8514 62.2914 40.1657 61.6 39.3143 61.6H27.2971V38.3943C27.2971 38.0515 27.5714 37.7772 27.9143 37.7772H31.3257V42.6972C31.3257 43.5429 32.0114 44.2343 32.8629 44.2343H35.4114C35.5886 44.7372 35.7943 45.2286 36.0286 45.7086L34.2229 47.5143C33.9314 47.8057 33.7714 48.1886 33.7714 48.6C33.7714 49.0114 33.9314 49.3943 34.2229 49.6857L38.7886 54.2514C39.3886 54.8514 40.36 54.8514 40.96 54.2514L42.7657 52.4457C43.2457 52.68 43.7429 52.8857 44.24 53.0572V55.6057C44.24 56.4514 44.9257 57.1429 45.7771 57.1429H52.2343C53.08 57.1429 53.7714 56.4514 53.7714 55.6057V53.0572C54.2743 52.88 54.7657 52.6743 55.2457 52.44L57.0514 54.2457C57.6286 54.8286 58.64 54.8286 59.2229 54.2457L63.7886 49.68C64.08 49.3886 64.24 49.0057 64.24 48.5943C64.24 48.1829 64.08 47.8 63.7886 47.5086L61.9829 45.7029C62.2171 45.2229 62.4229 44.7257 62.6 44.2286H65.1486C65.9943 44.2286 66.6857 43.5429 66.6857 42.6915V37.7715H70.0971C70.44 37.7715 70.7143 38.0457 70.7143 38.3886V61.6H58.68C57.8343 61.6 57.1486 62.2914 57.1486 63.1372ZM38.0343 36.6286C38.2971 35.6229 38.7029 34.6457 39.24 33.7315C39.5943 33.1315 39.4971 32.36 39.0057 31.8686L37.48 30.3429L39.8743 27.9486L41.4 29.4743C41.8971 29.9715 42.6629 30.0686 43.2629 29.7143C44.1771 29.1772 45.1543 28.7715 46.16 28.5086C46.8343 28.3315 47.3086 27.72 47.3086 27.0229V24.8743H50.6914V27.0229C50.6914 27.72 51.1657 28.3315 51.84 28.5086C52.8457 28.7715 53.8229 29.1772 54.7371 29.7143C55.3429 30.0686 56.1086 29.9715 56.6 29.48L58.1257 27.9543L60.52 30.3486L58.9943 31.8743C58.4971 32.3715 58.4 33.1372 58.7543 33.7372C59.2914 34.6515 59.6971 35.6286 59.96 36.6343C60.1371 37.3143 60.7429 37.7829 61.4457 37.7829H63.5943V41.1657H61.4457C60.7486 41.1657 60.1371 41.64 59.96 42.3143C59.6971 43.3257 59.2914 44.2972 58.7543 45.2115C58.4 45.8172 58.4971 46.5829 58.9943 47.0743L60.52 48.6L58.1257 50.9943L56.6 49.4686C56.1029 48.9772 55.3371 48.8743 54.7371 49.2286C53.8229 49.7657 52.8457 50.1714 51.84 50.4343C51.1657 50.6114 50.6914 51.2229 50.6914 51.92V54.0686H47.3086V51.92C47.3086 51.2229 46.8343 50.6114 46.16 50.4343C45.1543 50.1714 44.1771 49.7657 43.2629 49.2286C42.6571 48.8743 41.8914 48.9715 41.4 49.4686L39.8743 50.9943L37.48 48.6L39.0057 47.0743C39.5029 46.5772 39.6 45.8115 39.2457 45.2115C38.7086 44.2972 38.3029 43.32 38.04 42.3143C37.8629 41.64 37.2514 41.1657 36.5543 41.1657H34.4057V37.7829H36.5543C37.2457 37.7772 37.8571 37.3029 38.0343 36.6286Z" fill="#5DA68B"/>
</svg>
