<svg width="98" height="98" viewBox="0 0 98 98" fill="none" xmlns="http://www.w3.org/2000/svg">
<circle cx="49" cy="49" r="49" fill="#F6F9F3"/>
<g clip-path="url(#clip0)">
<path d="M30.3828 50.6914C30.3828 61.8914 39.4971 71 50.6914 71C61.8914 71 71 61.8914 71 50.6914C71 40.1143 62.8743 31.4057 52.5371 30.4686V26.6914H56.2285V23H45.1542V26.6914H48.8457V30.4686C38.5085 31.4057 30.3828 40.1143 30.3828 50.6914ZM67.3085 50.6914C67.3085 59.8514 59.8571 67.3086 50.6914 67.3086C41.5257 67.3086 34.0742 59.8514 34.0742 50.6914C34.0742 41.5314 41.5257 34.0743 50.6914 34.0743C59.8571 34.0743 67.3085 41.5314 67.3085 50.6914Z" fill="#5DA68B"/>
<path d="M48.8457 37.7714V52.5429H63.6171V48.8514H52.5371V37.7714H48.8457Z" fill="#5DA68B"/>
<path d="M28.6342 42.0343H20.0971C19.1485 42.0343 18.3828 41.2686 18.3828 40.32C18.3828 39.3714 19.1485 38.6057 20.0971 38.6057H28.6342C29.5828 38.6057 30.3485 39.3714 30.3485 40.32C30.3485 41.2686 29.5828 42.0343 28.6342 42.0343Z" fill="#5DA68B"/>
<path d="M25.5829 51.9543H17.0457C16.0971 51.9543 15.3314 51.1886 15.3314 50.24C15.3314 49.2914 16.0971 48.5257 17.0457 48.5257H25.5829C26.5314 48.5257 27.2971 49.2914 27.2971 50.24C27.2971 51.1886 26.5257 51.9543 25.5829 51.9543Z" fill="#5DA68B"/>
<path d="M27.8686 61.8743H19.3315C18.3829 61.8743 17.6172 61.1086 17.6172 60.16C17.6172 59.2115 18.3829 58.4457 19.3315 58.4457H27.8686C28.8172 58.4457 29.5829 59.2115 29.5829 60.16C29.5829 61.1086 28.8172 61.8743 27.8686 61.8743Z" fill="#5DA68B"/>
</g>
<defs>
<clipPath id="clip0">
<rect width="56" height="56" fill="white" transform="translate(15 19)"/>
</clipPath>
</defs>
</svg>
