<svg width="98" height="98" viewBox="0 0 98 98" fill="none" xmlns="http://www.w3.org/2000/svg">
<circle cx="49" cy="49" r="49" fill="#F6F9F3"/>
<g clip-path="url(#clip0)">
<path d="M67.6581 39.5848C65.0699 29.2742 54.6136 23.0141 44.3031 25.6023C36.2457 27.6249 30.3951 34.5888 29.7923 42.8743C24.0711 43.8178 20.1981 49.2204 21.1415 54.9415C21.9802 60.0277 26.3873 63.7525 31.5421 63.732H40.2911V60.2324H31.5421C27.6765 60.2324 24.5428 57.0987 24.5428 53.2332C24.5428 49.3676 27.6765 46.2339 31.5421 46.2339C32.5085 46.2339 33.2919 45.4506 33.2919 44.4841C33.2831 35.7866 40.3269 28.7287 49.0244 28.7201C56.5534 28.7126 63.0346 34.0352 64.4909 41.422C64.6348 42.1595 65.2333 42.7229 65.9783 42.8218C70.762 43.503 74.0877 47.9332 73.4065 52.7169C72.7949 57.0124 69.1273 60.2107 64.7884 60.2324H57.7892V63.732H64.7884C71.5532 63.7116 77.0204 58.211 76.9999 51.4463C76.9828 45.8152 73.1284 40.9211 67.6581 39.5848Z" fill="#5DA68B"/>
<path d="M47.7978 46.7415L40.7986 53.7407L43.2658 56.2079L47.2904 52.2009V68.9815H50.79V52.2009L54.797 56.2079L57.2643 53.7407L50.265 46.7415C49.5825 46.063 48.4804 46.063 47.7978 46.7415Z" fill="#5DA68B"/>
</g>
<defs>
<clipPath id="clip0">
<rect width="56" height="56" fill="white" transform="translate(21 19)"/>
</clipPath>
</defs>
</svg>
