<svg width="98" height="98" viewBox="0 0 98 98" fill="none" xmlns="http://www.w3.org/2000/svg">
<circle cx="49" cy="49" r="49" fill="#F6F9F3"/>
<path d="M22.3772 24C19.64 24 17.4114 26.2286 17.4114 28.9657C17.4114 31.7029 19.64 33.9314 22.3772 33.9314C25.1143 33.9314 27.3429 31.7029 27.3429 28.9657C27.3486 26.2286 25.12 24 22.3772 24ZM22.3543 31.5886C20.9372 31.5886 19.7886 30.44 19.7886 29.0229C19.7886 27.6057 20.9372 26.4571 22.3543 26.4571C23.7714 26.4571 24.92 27.6057 24.92 29.0229C24.92 30.44 23.7714 31.5886 22.3543 31.5886Z" fill="#5DA68B"/>
<path d="M38.1486 43.9486C35.7028 46.9143 30.8457 45.1886 30.8457 41.3257V36.0171C30.8457 32.16 35.6971 30.4286 38.1486 33.3943C38.7828 34.1657 39.92 34.2743 40.6914 33.64C41.4628 33.0057 41.5714 31.8686 40.9371 31.0971C39.4628 29.3086 37.2857 28.2857 34.9714 28.2857C30.7086 28.2857 27.24 31.7543 27.24 36.0171V41.3257C27.24 45.5886 30.7086 49.0571 34.9714 49.0571C37.2857 49.0571 39.4628 48.0286 40.9371 46.24C41.5714 45.4686 41.4628 44.3314 40.6914 43.6971C39.92 43.0743 38.7828 43.1828 38.1486 43.9486Z" fill="#5DA68B"/>
<path d="M68.7829 30.32H61.7943C61.1943 26.7429 58.08 24 54.3314 24C50.16 24 46.7657 27.3943 46.7657 31.5657V60.5943C44.4572 62.7086 43.1543 65.6571 43.1543 68.8229C43.1543 74.9886 48.1657 80 54.3314 80C60.4972 80 65.5086 74.9886 65.5086 68.8229C65.5086 65.6571 64.2 62.7086 61.8972 60.5943V56.5143H64.2686C65.2686 56.5143 66.0743 55.7029 66.0743 54.7086C66.0743 53.7086 65.2629 52.9029 64.2686 52.9029H61.8972V45.2286H66.5257C67.5257 45.2286 68.3314 44.4171 68.3314 43.4229C68.3314 42.4229 67.52 41.6171 66.5257 41.6171H61.8972V33.9371H68.7829C69.7829 33.9371 70.5886 33.1257 70.5886 32.1314C70.5886 31.1314 69.7772 30.32 68.7829 30.32ZM54.3314 76.3886C50.16 76.3886 46.7657 72.9943 46.7657 68.8229C46.7657 66.4743 47.8286 64.2971 49.68 62.8571C50.12 62.5143 50.3772 61.9886 50.3772 61.4343V31.5657C50.3772 29.3886 52.1486 27.6114 54.3314 27.6114C56.5143 27.6114 58.2857 29.3829 58.2857 31.5657V61.4286C58.2857 61.9829 58.5429 62.5086 58.9829 62.8514C60.8343 64.2971 61.8972 66.4686 61.8972 68.8171C61.8972 72.9943 58.5029 76.3886 54.3314 76.3886Z" fill="#5DA68B"/>
<path d="M56.1372 65.0571V42.4057C56.1372 41.4057 55.3257 40.6 54.3314 40.6C53.3314 40.6 52.5257 41.4114 52.5257 42.4057V65.0571C51.1257 65.7314 50.1543 67.1657 50.1543 68.8228C50.1543 71.1257 52.0286 73 54.3314 73C56.6343 73 58.5086 71.1257 58.5086 68.8228C58.5086 67.1657 57.5372 65.7314 56.1372 65.0571Z" fill="#5DA68B"/>
</svg>
