<svg width="16" height="16" viewBox="0 0 16 16" fill="none" xmlns="http://www.w3.org/2000/svg">
<path d="M6.37 3.78C6.95 2.81 7.53 1.83 8.11 0.860001C8.74 1.85 9.36 2.83 9.99 3.82C10.44 3.57 10.88 3.32 11.33 3.08C11.16 4.16 10.98 5.24 10.81 6.32C11.62 6 12.48 5.81 13.35 5.77C11.46 6.54 9.71 7.67 8.25 9.1C6.7 10.61 5.46 12.45 4.64 14.45C4.55 14.68 4.46 14.91 4.37 15.14C4.46 14.33 4.58 13.52 4.79 12.73C3.19 11.9 1.6 11.06 0 10.23C0.39 10 0.78 9.77 1.16 9.54C0.78 8.61 0.39 7.67 0 6.74C0.93 6.81 1.86 6.87 2.79 6.94C2.84 6.51 2.89 6.07 2.93 5.64C3.78 6.31 4.63 6.99 5.48 7.66C5.25 6.12 5.02 4.58 4.78 3.04C5.31 3.29 5.84 3.53 6.37 3.78Z" fill="#E11F26"/>
<path d="M15.53 5.45C15.69 5.41 15.84 5.36 16 5.33C15.44 5.62 14.94 6.02 14.54 6.5C14.03 7.11 13.67 7.84 13.51 8.62C14.29 9.34 15.13 10 16.01 10.61C14.39 10.21 12.68 10.21 11.06 10.62C9.23998 11.07 7.53998 12.03 6.21998 13.36C5.66998 13.9 5.19998 14.5 4.78998 15.14C5.53998 13.2 6.66998 11.41 8.09998 9.91C9.51998 8.41 11.22 7.19 13.1 6.34C13.88 5.98 14.7 5.68 15.53 5.45Z" fill="#5DA68B"/>
</svg>
