<svg width="207" height="53" viewBox="0 0 207 53" fill="none" xmlns="http://www.w3.org/2000/svg">
<path d="M22.8 12.9L10.2 19.9V23.7L36 38.4L22.8 46.4L0.5 33.9V40.7L22.8 52.9L45 40.5V36.8L19.4 22.4L22.8 20.1L45 32.9V25.3L22.8 12.9Z" fill="#7EBFAD"/>
<path d="M0.5 14.2V29.2L23.3 41.8L28.4 38.3L6.8 25.7V18L23.3 8.2L45 20.8V14L22.8 1.3L0.5 14.2Z" fill="#5DA68B"/>
<path d="M205.6 47.1H179.9C179.6 47.1 179.4 46.9 179.4 46.6C179.4 46.3 179.6 46.1 179.9 46.1H205.6C205.9 46.1 206.1 46.3 206.1 46.6C206.1 46.9 205.9 47.1 205.6 47.1Z" fill="#9A9A9A"/>
<path d="M80 47.1H54.2C53.9 47.1 53.7 46.9 53.7 46.6C53.7 46.3 53.9 46.1 54.2 46.1H80C80.3 46.1 80.5 46.3 80.5 46.6C80.5 46.9 80.3 47.1 80 47.1Z" fill="#9A9A9A"/>
<path d="M58.7 15.4C58.4 15.6 58.3 15.9 58.3 16.3C58.3 16.7 58.5 17 58.8 17.2C59.1 17.4 59.9 17.7 61.1 18C62.3 18.3 63.2 18.7 63.9 19.3C64.6 19.9 64.9 20.7 64.9 21.9C64.9 23.1 64.5 23.9 63.6 24.6C62.8 25.3 61.6 25.7 60.3 25.7C58.3 25.7 56.5 25 54.9 23.5L56.6 21.4C58 22.6 59.2 23.2 60.4 23.2C60.9 23.2 61.3 23.1 61.6 22.9C61.9 22.7 62 22.4 62 22C62 21.6 61.8 21.3 61.5 21.1C61.2 20.9 60.6 20.7 59.6 20.4C58.1 20 57 19.5 56.4 19C55.7 18.4 55.4 17.6 55.4 16.4C55.4 15.2 55.8 14.3 56.7 13.6C57.6 13 58.6 12.6 59.9 12.6C60.7 12.6 61.6 12.7 62.4 13C63.2 13.3 64 13.7 64.6 14.2L63.2 16.3C62.1 15.5 61 15.1 59.8 15.1C59.3 15.1 58.9 15.2 58.7 15.4Z" fill="#4C4C4C"/>
<path d="M67.4 12.9H70.2V25.5H67.4V12.9Z" fill="#4C4C4C"/>
<path d="M73.5 25.5V12.9H76.3V23H81.7V25.5H73.5Z" fill="#4C4C4C"/>
<path d="M87.2 20.9L90.4 12.9H93.4L88.3 25.5H86L81 12.9H84L87.2 20.9Z" fill="#4C4C4C"/>
<path d="M104.3 12.9V15.4H98V18H103.6V20.4H98V23H104.5V25.5H95.2V12.9H104.3Z" fill="#4C4C4C"/>
<path d="M117.5 17.1C117.5 19.1 116.7 20.4 115.1 21L118.3 25.5H114.8L112 21.5H110.1V25.5H107.3V12.9H112.1C114.1 12.9 115.5 13.2 116.3 13.9C117.1 14.6 117.5 15.6 117.5 17.1ZM114.1 18.6C114.4 18.3 114.6 17.8 114.6 17.1C114.6 16.4 114.4 16 114.1 15.7C113.7 15.4 113.1 15.3 112.2 15.3H110.1V19H112.2C113.1 19.1 113.8 18.9 114.1 18.6Z" fill="#4C4C4C"/>
<path d="M131.3 23C132.7 23 133.8 22.5 134.7 21.4L136.5 23.3C135.1 24.9 133.4 25.7 131.5 25.7C129.6 25.7 128 25.1 126.7 23.9C125.4 22.7 124.8 21.1 124.8 19.3C124.8 17.4 125.4 15.9 126.7 14.6C128 13.4 129.5 12.7 131.4 12.7C133.5 12.7 135.2 13.5 136.6 15.1L134.9 17.1C134 16 132.9 15.4 131.6 15.4C130.5 15.4 129.6 15.7 128.9 16.4C128.2 17.1 127.8 18 127.8 19.2C127.8 20.4 128.2 21.3 128.9 22C129.6 22.7 130.3 23 131.3 23Z" fill="#4C4C4C"/>
<path d="M149 17.1C149 19.1 148.2 20.4 146.6 21L149.8 25.5H146.3L143.5 21.5H141.6V25.5H138.8V12.9H143.6C145.6 12.9 147 13.2 147.8 13.9C148.6 14.6 149 15.6 149 17.1ZM145.6 18.6C145.9 18.3 146.1 17.8 146.1 17.1C146.1 16.4 145.9 16 145.6 15.7C145.2 15.4 144.6 15.3 143.7 15.3H141.6V19H143.7C144.6 19.1 145.2 18.9 145.6 18.6Z" fill="#4C4C4C"/>
<path d="M157 25.5H154.2V20.5L149.8 12.9H152.8L155.5 17.6L158.2 12.9H161.2L156.8 20.5V25.5H157Z" fill="#4C4C4C"/>
<path d="M165.6 15.4C165.3 15.6 165.2 15.9 165.2 16.3C165.2 16.7 165.4 17 165.7 17.2C166 17.4 166.8 17.7 168 18C169.2 18.3 170.1 18.7 170.8 19.3C171.5 19.9 171.8 20.7 171.8 21.9C171.8 23.1 171.4 23.9 170.5 24.6C169.7 25.3 168.5 25.7 167.2 25.7C165.2 25.7 163.4 25 161.8 23.5L163.5 21.4C164.9 22.6 166.1 23.2 167.3 23.2C167.8 23.2 168.2 23.1 168.5 22.9C168.8 22.7 168.9 22.4 168.9 22C168.9 21.6 168.7 21.3 168.4 21.1C168.1 20.9 167.5 20.7 166.5 20.4C165 20.1 164 19.6 163.3 19C162.6 18.4 162.3 17.6 162.3 16.4C162.3 15.2 162.7 14.3 163.6 13.6C164.5 13 165.5 12.6 166.8 12.6C167.6 12.6 168.5 12.7 169.3 13C170.1 13.3 170.9 13.7 171.5 14.2L170.1 16.3C169 15.5 167.9 15.1 166.7 15.1C166.2 15.1 165.9 15.2 165.6 15.4Z" fill="#4C4C4C"/>
<path d="M179.7 15.3V25.5H176.9V15.3H173.3V12.9H183.2V15.3H179.7Z" fill="#4C4C4C"/>
<path d="M193.3 25.5L192.1 22.8H186.8L185.6 25.5H182.6L188 12.9H190.7L196.1 25.5H193.3ZM189.5 16.7L187.9 20.4H191.1L189.5 16.7Z" fill="#4C4C4C"/>
<path d="M198 25.5V12.9H200.8V23H206.2V25.5H198Z" fill="#4C4C4C"/>
<path d="M100.4 30.4V39.5H97.8V36H94.3V39.5H91.7V30.4H94.3V33.8H97.8V30.4H100.4Z" fill="#5DA68B"/>
<path d="M113.6 37.5V39.5H106.3V30.4H113.4V32.4H108.8V33.9H112.8V35.8H108.8V37.5H113.6Z" fill="#5DA68B"/>
<path d="M125.4 37.7H121.6L120.9 39.5H118.3L122.3 30.4H124.8L128.8 39.5H126.1L125.4 37.7ZM124.7 35.8L123.5 32.9L122.3 35.8H124.7Z" fill="#5DA68B"/>
<path d="M133.6 30.4H136.2V37.5H140.5V39.5H133.6V30.4Z" fill="#5DA68B"/>
<path d="M146.5 32.4H143.7V30.4H151.9V32.4H149.1V39.5H146.5V32.4V32.4Z" fill="#5DA68B"/>
<path d="M165.5 30.4V39.5H162.9V36H159.4V39.5H156.8V30.4H159.4V33.8H162.9V30.4H165.5Z" fill="#5DA68B"/>
<path d="M88.2 44C88.5 44.3 88.7 44.7 88.7 45.3C88.7 45.9 88.5 46.3 88.2 46.6C87.9 46.9 87.3 47 86.6 47H86V48.4H84.9V43.5H86.6C87.3 43.6 87.9 43.7 88.2 44ZM87.4 46C87.5 45.9 87.6 45.6 87.6 45.4C87.6 45.2 87.5 44.9 87.3 44.8C87.1 44.7 86.9 44.6 86.5 44.6H86V46.2H86.7C87.1 46.2 87.3 46.1 87.4 46Z" fill="#9A9A9A"/>
<path d="M92.3 45.7C92 45.7 91.8 45.8 91.6 46C91.4 46.2 91.4 46.5 91.4 46.9V48.5H90.4V44.7H91.4V45.2C91.5 45 91.7 44.9 91.9 44.8C92.1 44.7 92.3 44.6 92.5 44.6V45.6H92.3V45.7V45.7Z" fill="#9A9A9A"/>
<path d="M97.8 46.6C97.8 47.1 97.6 47.6 97.2 48C96.8 48.4 96.3 48.6 95.8 48.6C95.3 48.6 94.8 48.4 94.4 48C94 47.6 93.8 47.2 93.8 46.6C93.8 46.1 94 45.6 94.4 45.2C94.8 44.8 95.3 44.6 95.8 44.6C96.3 44.6 96.8 44.8 97.2 45.2C97.6 45.6 97.8 46.1 97.8 46.6ZM94.9 46.6C94.9 46.9 95 47.2 95.2 47.4C95.4 47.6 95.6 47.7 95.9 47.7C96.2 47.7 96.4 47.6 96.6 47.4C96.8 47.2 96.9 47 96.9 46.6C96.9 46.3 96.8 46 96.6 45.8C96.4 45.6 96.2 45.5 95.9 45.5C95.6 45.5 95.4 45.6 95.2 45.8C94.9 46.1 94.9 46.3 94.9 46.6Z" fill="#9A9A9A"/>
<path d="M100.6 45.5V47.2C100.6 47.3 100.6 47.5 100.7 47.5C100.8 47.6 100.9 47.6 101 47.6C101.2 47.6 101.4 47.5 101.5 47.3L101.9 48C101.6 48.3 101.2 48.4 100.9 48.4C100.6 48.4 100.2 48.3 100 48C99.8 47.8 99.6 47.4 99.6 47V45.3H99.2V44.5H99.6V43.4H100.7V44.5H101.6V45.3H100.6V45.5V45.5Z" fill="#9A9A9A"/>
<path d="M106.4 47.9C106 48.3 105.5 48.5 104.9 48.5C104.3 48.5 103.9 48.3 103.5 48C103.1 47.6 102.9 47.2 102.9 46.6C102.9 46 103.1 45.5 103.5 45.2C103.9 44.9 104.3 44.7 104.8 44.7C105.3 44.7 105.8 44.9 106.1 45.2C106.5 45.5 106.6 45.9 106.6 46.5V47H104C104 47.2 104.1 47.4 104.3 47.5C104.5 47.6 104.7 47.7 104.9 47.7C105.3 47.7 105.6 47.6 105.8 47.3L106.4 47.9ZM105.4 45.7C105.3 45.6 105.1 45.5 104.9 45.5C104.7 45.5 104.5 45.6 104.3 45.7C104.1 45.8 104 46 104 46.2H105.7C105.6 46 105.5 45.8 105.4 45.7Z" fill="#9A9A9A"/>
<path d="M110.2 47.6C110.5 47.6 110.9 47.4 111.1 47.1L111.7 47.8C111.2 48.3 110.7 48.6 110.1 48.6C109.5 48.6 109.1 48.4 108.7 48.1C108.3 47.7 108.1 47.3 108.1 46.7C108.1 46.1 108.3 45.7 108.7 45.3C109.1 44.9 109.6 44.8 110.1 44.8C110.4 44.8 110.6 44.9 110.9 45C111.2 45.1 111.4 45.3 111.6 45.5L111.1 46.2C111 46.1 110.8 45.9 110.7 45.9C110.6 45.9 110.4 45.8 110.2 45.8C109.9 45.8 109.7 45.9 109.5 46.1C109.3 46.3 109.2 46.5 109.2 46.8C109.2 47.1 109.3 47.4 109.5 47.5C109.7 47.5 109.9 47.6 110.2 47.6Z" fill="#9A9A9A"/>
<path d="M114.6 45.5V47.2C114.6 47.3 114.6 47.5 114.7 47.5C114.8 47.6 114.9 47.6 115 47.6C115.2 47.6 115.4 47.5 115.5 47.3L115.9 48C115.6 48.3 115.2 48.4 114.9 48.4C114.5 48.4 114.2 48.3 114 48C113.8 47.8 113.6 47.4 113.6 47V45.3H113.2V44.5H113.6V43.4H114.7V44.5H115.6V45.3H114.6V45.5V45.5Z" fill="#9A9A9A"/>
<path d="M117.3 44.2C117.2 44.1 117.1 43.9 117.1 43.8C117.1 43.6 117.2 43.5 117.3 43.4C117.4 43.3 117.6 43.2 117.7 43.2C117.8 43.2 118 43.3 118.1 43.4C118.2 43.5 118.3 43.7 118.3 43.8C118.3 44 118.2 44.1 118.1 44.2C118 44.3 117.8 44.4 117.7 44.4C117.6 44.4 117.4 44.4 117.3 44.2ZM118.3 48.5H117.3V44.7H118.3V48.5Z" fill="#9A9A9A"/>
<path d="M121.2 46.4V48.5H120.2V44.7H121.2V45.1C121.5 44.8 121.9 44.6 122.3 44.6C122.7 44.6 123 44.7 123.3 45C123.6 45.3 123.7 45.7 123.7 46.1V48.4H122.7V46.3C122.7 45.7 122.5 45.4 122.1 45.4C121.9 45.4 121.7 45.5 121.6 45.6C121.5 45.7 121.2 46.1 121.2 46.4Z" fill="#9A9A9A"/>
<path d="M128.3 47.9C128 48.3 127.6 48.5 127.1 48.5C126.6 48.5 126.2 48.3 125.9 48C125.6 47.7 125.4 47.2 125.4 46.7C125.4 46.2 125.6 45.7 125.9 45.3C126.2 44.9 126.6 44.8 127.1 44.8C127.5 44.8 127.9 45 128.2 45.4V44.9H129.2V48C129.2 48.3 129.1 48.6 129 48.9C128.9 49.2 128.7 49.4 128.5 49.5C128.1 49.8 127.7 50 127.1 50C126.8 50 126.5 50 126.2 49.9C125.9 49.8 125.7 49.7 125.4 49.5L125.8 48.7C126.1 49 126.5 49.1 126.9 49.1C127.3 49.1 127.6 49 127.8 48.8C128 48.6 128.3 48.3 128.3 47.9ZM128.1 46.5C128.1 46.2 128 46 127.8 45.8C127.6 45.6 127.4 45.5 127.2 45.5C127 45.5 126.7 45.6 126.6 45.8C126.4 46 126.3 46.2 126.3 46.5C126.3 46.8 126.4 47 126.6 47.2C126.8 47.4 127 47.5 127.2 47.5C127.4 47.5 127.7 47.4 127.8 47.2C127.9 47 128.1 46.8 128.1 46.5Z" fill="#9A9A9A"/>
<path d="M135.6 44.5V48.4H134.5V44.5H133.1V43.6H137V44.5H135.6Z" fill="#9A9A9A"/>
<path d="M139.5 46.5V48.5H138.5V43.3H139.5V45.1C139.8 44.8 140.2 44.6 140.6 44.6C141 44.6 141.3 44.7 141.6 45C141.9 45.3 142 45.7 142 46.1V48.4H140.9V46.3C140.9 45.7 140.7 45.4 140.3 45.4C140.1 45.4 139.9 45.5 139.8 45.6C139.6 45.9 139.5 46.2 139.5 46.5Z" fill="#9A9A9A"/>
<path d="M147 47.9C146.6 48.3 146.1 48.5 145.5 48.5C144.9 48.5 144.5 48.3 144.1 48C143.7 47.7 143.5 47.2 143.5 46.6C143.5 46 143.7 45.5 144.1 45.2C144.5 44.9 144.9 44.7 145.4 44.7C145.9 44.7 146.4 44.9 146.7 45.2C147.1 45.5 147.2 45.9 147.2 46.5V47H144.5C144.5 47.2 144.6 47.4 144.8 47.5C145 47.6 145.2 47.7 145.4 47.7C145.8 47.7 146.1 47.6 146.3 47.3L147 47.9ZM146 45.7C145.9 45.6 145.7 45.5 145.5 45.5C145.3 45.5 145.1 45.6 144.9 45.7C144.7 45.8 144.6 46 144.6 46.2H146.3C146.3 46 146.2 45.8 146 45.7Z" fill="#9A9A9A"/>
<path d="M154.5 43.6H155.6V48.5H154.5V46.6H152.6V48.5H151.5V43.6H152.6V45.6H154.5V43.6Z" fill="#9A9A9A"/>
<path d="M161.3 46.6C161.3 47.1 161.1 47.6 160.7 48C160.3 48.4 159.8 48.6 159.3 48.6C158.7 48.6 158.3 48.4 157.9 48C157.5 47.6 157.3 47.2 157.3 46.6C157.3 46.1 157.5 45.6 157.9 45.2C158.3 44.8 158.8 44.6 159.3 44.6C159.9 44.6 160.3 44.8 160.7 45.2C161.1 45.6 161.3 46.1 161.3 46.6ZM158.4 46.6C158.4 46.9 158.5 47.2 158.7 47.4C158.9 47.6 159.1 47.7 159.4 47.7C159.7 47.7 159.9 47.6 160.1 47.4C160.3 47.2 160.4 47 160.4 46.6C160.4 46.3 160.3 46 160.1 45.8C159.9 45.6 159.7 45.5 159.4 45.5C159.1 45.5 158.9 45.6 158.7 45.8C158.5 46.1 158.4 46.3 158.4 46.6Z" fill="#9A9A9A"/>
<path d="M165.4 46.8V44.8H166.5V48.6H165.4V48C165.1 48.4 164.8 48.6 164.4 48.6C164 48.6 163.6 48.5 163.4 48.2C163.1 47.9 163 47.6 163 47V44.7H164.1V46.8C164.1 47.4 164.3 47.7 164.7 47.7C164.9 47.7 165.1 47.6 165.2 47.5C165.3 47.3 165.4 47 165.4 46.8Z" fill="#9A9A9A"/>
<path d="M171.1 47.3C171.1 47.7 171 48 170.7 48.2C170.4 48.4 170.1 48.5 169.7 48.5C169.4 48.5 169.1 48.5 168.8 48.3C168.5 48.2 168.2 48.1 168 47.9L168.5 47.2C168.9 47.5 169.3 47.7 169.8 47.7C169.9 47.7 170 47.7 170.1 47.6C170.2 47.5 170.2 47.5 170.2 47.4C170.2 47.3 170.1 47.2 170 47.2C169.9 47.1 169.7 47.1 169.5 47C169.3 46.9 169.1 46.9 169 46.8C168.9 46.7 168.8 46.7 168.6 46.6C168.3 46.4 168.2 46.2 168.2 45.8C168.2 45.4 168.3 45.2 168.6 44.9C168.9 44.7 169.2 44.6 169.7 44.6C170.2 44.6 170.6 44.7 171 45L170.6 45.7C170.3 45.5 169.9 45.4 169.6 45.4C169.3 45.4 169.1 45.5 169.1 45.7C169.1 45.8 169.2 45.9 169.3 45.9C169.4 46 169.6 46 169.8 46.1C170 46.2 170.2 46.2 170.3 46.3C170.4 46.3 170.5 46.4 170.7 46.5C171 46.7 171.1 47 171.1 47.3Z" fill="#9A9A9A"/>
<path d="M176 47.9C175.6 48.3 175.1 48.5 174.5 48.5C173.9 48.5 173.5 48.3 173.1 48C172.7 47.6 172.5 47.2 172.5 46.6C172.5 46 172.7 45.5 173.1 45.2C173.5 44.9 173.9 44.7 174.4 44.7C174.9 44.7 175.4 44.9 175.7 45.2C176 45.5 176.2 45.9 176.2 46.5V47H173.5C173.5 47.2 173.6 47.4 173.8 47.5C174 47.6 174.2 47.7 174.4 47.7C174.8 47.7 175.1 47.6 175.3 47.3L176 47.9ZM175 45.7C174.9 45.6 174.7 45.5 174.5 45.5C174.3 45.5 174.1 45.6 173.9 45.7C173.7 45.8 173.6 46 173.6 46.2H175.3C175.2 46 175.1 45.8 175 45.7Z" fill="#9A9A9A"/>
</svg>
