<svg width="30" height="30" viewBox="0 0 30 30" fill="none" xmlns="http://www.w3.org/2000/svg">
<circle cx="15" cy="15" r="15" fill="#DA712B"/>
<path d="M15.2562 13.8312V16.8H19.2938C18.7 18.4031 17.1562 19.4719 15.375 19.4719C13.0594 19.4719 11.2188 17.6312 11.2188 15.3156C11.2188 13 13.0594 11.1594 15.375 11.1594C16.2656 11.1594 17.0969 11.4563 17.8094 11.9313L18.0469 12.1094L19.8281 9.79375L19.5906 9.61562C18.3438 8.725 16.9187 8.25 15.375 8.25C11.4563 8.25 8.25 11.4563 8.25 15.375C8.25 19.2937 11.4563 22.5 15.375 22.5C19.2937 22.5 22.5 19.2937 22.5 15.375V13.8906H15.2562V13.8312Z" fill="white"/>
</svg>
