<svg width="308" height="128" viewBox="0 0 308 128" fill="none" xmlns="http://www.w3.org/2000/svg">
<path d="M0 0.248882C57.5271 0.187046 114.993 0.31072 172.52 0.187046C172.211 11.8124 172.396 23.4995 172.396 35.1248C122.947 35.1248 73.5583 35.1248 24.1084 35.1248C17.8809 35.3722 11.0368 33.0224 7.83059 27.3334C2.34301 19.4183 1.17151 9.58623 0 0.248882Z" fill="#E0E0E0"/>
<path d="M184.543 0.00148108C206.987 -0.0603557 229.738 1.79475 251.072 9.21516C266.61 14.4094 281.47 22.6956 292.322 35.2484C256.436 35.0011 220.49 35.3721 184.605 35.0629C184.296 23.3139 184.296 11.6886 184.543 0.00148108Z" fill="#E0E0E0"/>
<path d="M16.0928 46.2553C45.5037 46.1317 74.9147 46.1935 104.326 46.1935C126.954 45.3896 149.706 45.5133 172.335 46.2553C172.335 57.8188 172.335 69.4441 172.335 81.0076C128.496 81.1931 84.6567 81.0694 40.8794 81.1313C35.1452 81.2549 28.4861 80.5129 24.6633 75.6278C18.0042 67.4653 16.5244 56.4584 16.0928 46.2553Z" fill="#E0E0E0"/>
<path d="M184.481 46.3172C223.018 46.1935 261.492 46.1935 300.029 46.3172C305.393 56.9531 307.736 68.8257 307.921 80.6365C266.733 80.6984 225.607 80.6365 184.42 80.6365C184.42 69.1967 184.358 57.757 184.481 46.3172Z" fill="#E0E0E0"/>
<path d="M198.724 93.4368C208.59 91.3344 218.825 99.3731 219.195 109.453C220.181 118.295 212.906 127.262 204.027 127.818C196.011 129.055 187.626 123.86 185.345 116.069C181.707 106.484 188.736 95.0446 198.724 93.4368Z" fill="#E0E0E0"/>
<path d="M239.419 94.55C243.488 93.2514 248.051 92.5712 252.121 94.3645C263.404 97.7037 267.289 113.905 259.273 122.315C251.381 131.714 233.5 129.055 230.047 116.811C226.101 108.34 231.157 98.0128 239.419 94.55Z" fill="#E0E0E0"/>
<path d="M74.9148 98.7549C107.409 98.7549 139.964 98.6931 172.458 98.8168C172.273 106.856 172.335 114.956 172.273 122.995C145.082 122.995 117.829 123.057 90.6376 122.995C86.2599 123.18 82.1905 120.831 79.7241 117.306C76.0863 111.926 75.4697 105.124 74.9148 98.7549Z" fill="#E0E0E0"/>
</svg>
