<svg width="101" height="43" viewBox="0 0 101 43" fill="none" xmlns="http://www.w3.org/2000/svg">
<path d="M0.428345 0.703494C19.1977 0.683319 37.9469 0.72367 56.7162 0.683319C56.6157 4.4763 56.676 8.28946 56.676 12.0824C40.542 12.0824 24.4282 12.0824 8.29417 12.0824C6.26233 12.1631 4.02932 11.3965 2.98323 9.54034C1.1928 6.95788 0.810571 3.74999 0.428345 0.703494Z" fill="white"/>
<path d="M60.6391 0.622798C67.9618 0.602622 75.385 1.20789 82.3456 3.62894C87.4151 5.32367 92.2633 8.02718 95.804 12.1228C84.0958 12.0421 72.3674 12.1631 60.6592 12.0623C60.5586 8.22894 60.5586 4.43596 60.6391 0.622798Z" fill="#E17329"/>
<path d="M5.67896 15.714C15.2749 15.6737 24.8708 15.6939 34.4667 15.6939C41.8497 15.4316 49.2729 15.4719 56.6559 15.714C56.6559 19.4868 56.6559 23.2798 56.6559 27.0526C42.3526 27.1132 28.0493 27.0728 13.7661 27.093C11.8952 27.1333 9.72251 26.8912 8.47524 25.2974C6.30259 22.6342 5.81978 19.043 5.67896 15.714Z" fill="white"/>
<path d="M60.619 15.7342C73.1922 15.6939 85.7453 15.6939 98.3186 15.7342C100.069 19.2044 100.833 23.0781 100.894 26.9316C87.4553 26.9518 74.0371 26.9316 60.5988 26.9316C60.5988 23.1991 60.5787 19.4667 60.619 15.7342Z" fill="#E17329"/>
<path d="M65.2661 31.1079C68.4848 30.4219 71.8243 33.0447 71.945 36.3333C72.2668 39.2184 69.893 42.1438 66.9961 42.3254C64.3809 42.7289 61.645 41.0342 60.9006 38.4921C59.7137 35.3649 62.0071 31.6324 65.2661 31.1079Z" fill="#E17329"/>
<path d="M78.5434 31.471C79.8711 31.0474 81.3598 30.8254 82.6875 31.4105C86.369 32.5 87.6364 37.7859 85.0211 40.5298C82.4461 43.5965 76.6121 42.7289 75.4856 38.7342C74.1981 35.9702 75.8477 32.6009 78.5434 31.471Z" fill="#E17329"/>
<path d="M24.8707 32.843C35.4725 32.843 46.0944 32.8228 56.6961 32.8631C56.6358 35.4859 56.6559 38.1289 56.6358 40.7517C47.7641 40.7517 38.8723 40.7719 30.0006 40.7517C28.5723 40.8123 27.2446 40.0456 26.4399 38.8956C25.253 37.1403 25.0518 34.921 24.8707 32.843Z" fill="white"/>
</svg>
