<?xml version="1.0" encoding="utf-8"?>
<!-- Generator: Adobe Illustrator 24.3.0, SVG Export Plug-In . SVG Version: 6.00 Build 0)  -->
<svg version="1.1" id="Capa_1" xmlns="http://www.w3.org/2000/svg" xmlns:xlink="http://www.w3.org/1999/xlink" x="0px" y="0px"
	 viewBox="0 0 512 512" style="enable-background:new 0 0 512 512;" xml:space="preserve">
<style type="text/css">
	.st0{fill:#E11F26;}
	.st1{fill:#0A0708;}
	.st2{font-family:'nevis-Bold';}
	.st3{font-size:200px;}
</style>
<g>
	<path d="M338.1,408.8H39.8C26.1,408.8,15,397.7,15,384V151.8c0-19.1,16.5-34.4,36-32.4c0,0,0,0,0,0c7.8-6.6,3.2-15.2-3.4-15.2
		C21.3,104.2,0,125.6,0,151.8V384c0,22,17.8,39.8,39.8,39.8h302C349.3,417.2,344.7,408.8,338.1,408.8L338.1,408.8z"/>
	<path d="M464.4,104.2H215.9c-4.1,0-7.5,3.4-7.5,7.5c0,4.1,3.4,7.5,7.5,7.5h248.5c18,0,32.6,14.6,32.6,32.6v224.5
		c0,18-14.6,32.6-32.6,32.6h-8c-4.1,0-7.5,3.4-7.5,7.5c0,4.1,3.4,7.5,7.5,7.5h8c26.2,0,47.6-21.3,47.6-47.6V151.8
		C512,125.6,490.7,104.2,464.4,104.2z"/>
</g>
<g>
	<path class="st0" d="M120.9,70c3.8-6.3,7.6-12.7,11.3-19c4.1,6.4,8.2,12.9,12.2,19.3c2.9-1.6,5.8-3.2,8.7-4.8
		c-1.1,7-2.3,14.1-3.4,21.1c5.3-2.1,10.9-3.3,16.5-3.6c-12.3,5-23.7,12.4-33.2,21.7c-10.1,9.8-18.2,21.8-23.5,34.9
		c-0.6,1.5-1.2,3-1.7,4.5c0.6-5.3,1.3-10.6,2.7-15.7c-10.4-5.4-20.8-10.9-31.2-16.3c2.5-1.5,5.1-3,7.6-4.5c-2.5-6.1-5-12.2-7.5-18.2
		c6.1,0.4,12.1,0.9,18.2,1.3c0.3-2.8,0.6-5.6,0.9-8.5c5.5,4.4,11.1,8.8,16.6,13.2c-1.5-10-3-20.1-4.5-30.1
		C114,66.8,117.4,68.4,120.9,70z"/>
</g>
<g>
	<path class="st1" d="M180.5,80.9c1-0.3,2-0.6,3-0.8c-3.6,1.9-6.9,4.5-9.5,7.6c-3.4,4-5.7,8.8-6.7,13.8c5.1,4.7,10.6,9,16.3,13
		c-10.5-2.6-21.7-2.6-32.2,0.1c-11.9,2.9-22.9,9.2-31.5,17.8c-3.5,3.5-6.6,7.4-9.2,11.5c4.9-12.6,12.3-24.3,21.6-34.1
		c9.2-9.7,20.3-17.7,32.5-23.2C169.8,84.3,175.1,82.4,180.5,80.9z"/>
</g>
<text transform="matrix(1 0 0 1 68 330.4688)" class="st2 st3">SCL</text>
<circle class="st0" cx="399" cy="414" r="33"/>
</svg>
