<?xml version="1.0" encoding="utf-8"?>
<!-- Generator: Adobe Illustrator 24.3.0, SVG Export Plug-In . SVG Version: 6.00 Build 0)  -->
<svg version="1.1" id="Capa_1" xmlns="http://www.w3.org/2000/svg" xmlns:xlink="http://www.w3.org/1999/xlink" x="0px" y="0px"
	 viewBox="0 0 512 228" style="enable-background:new 0 0 512 228;" xml:space="preserve">
<style type="text/css">
	.st0{fill:#E17329;}
</style>
<g>
	<path d="M7.1,13.4c93.3-0.1,186.5,0.1,279.8-0.1c-0.5,18.8-0.2,37.7-0.2,56.5c-80.2,0-160.3,0-240.5,0
		c-10.1,0.4-21.2-3.4-26.4-12.6C10.9,44.4,9,28.5,7.1,13.4z"/>
	<path class="st0" d="M306.4,13c36.4-0.1,73.3,2.9,107.9,14.9c25.2,8.4,49.3,21.8,66.9,42.1c-58.2-0.4-116.5,0.2-174.7-0.3
		C306,50.7,306,31.9,306.4,13z"/>
	<path d="M33.2,87.8c47.7-0.2,95.4-0.1,143.1-0.1c36.7-1.3,73.6-1.1,110.3,0.1c0,18.7,0,37.5,0,56.2c-71.1,0.3-142.2,0.1-213.2,0.2
		c-9.3,0.2-20.1-1-26.3-8.9C36.3,122.1,33.9,104.3,33.2,87.8z"/>
	<path class="st0" d="M306.3,87.9c62.5-0.2,124.9-0.2,187.4,0c8.7,17.2,12.5,36.4,12.8,55.5c-66.8,0.1-133.5,0-200.3,0
		C306.2,124.9,306.1,106.4,306.3,87.9z"/>
	<path class="st0" d="M329.4,164.1c16-3.4,32.6,9.6,33.2,25.9c1.6,14.3-10.2,28.8-24.6,29.7c-13,2-26.6-6.4-30.3-19
		C301.8,185.2,313.2,166.7,329.4,164.1z"/>
	<path class="st0" d="M395.4,165.9c6.6-2.1,14-3.2,20.6-0.3c18.3,5.4,24.6,31.6,11.6,45.2c-12.8,15.2-41.8,10.9-47.4-8.9
		C373.8,188.2,382,171.5,395.4,165.9z"/>
	<path d="M128.6,172.7c52.7,0,105.5-0.1,158.2,0.1c-0.3,13-0.2,26.1-0.3,39.1c-44.1,0-88.3,0.1-132.4,0c-7.1,0.3-13.7-3.5-17.7-9.2
		C130.5,194,129.5,183,128.6,172.7z"/>
</g>
</svg>
