<svg width="15" height="33" viewBox="0 0 15 33" fill="none" xmlns="http://www.w3.org/2000/svg">
<path d="M14.391 21.735C14.391 23.175 13.95 24.363 13.068 25.299C12.186 26.235 10.98 26.829 9.45 27.081C9.36 27.117 9.315 27.171 9.315 27.243L9.342 28.998C9.342 29.088 9.306 29.16 9.234 29.214C9.18 29.286 9.108 29.322 9.018 29.322H6.318C6.228 29.322 6.147 29.286 6.075 29.214C6.021 29.16 5.994 29.088 5.994 28.998L6.021 27.216C6.021 27.144 5.976 27.09 5.886 27.054C4.356 26.748 3.15 26.118 2.268 25.164C1.404 24.21 0.972 23.013 0.972 21.573V20.979C0.972 20.889 0.999 20.817 1.053 20.763C1.125 20.691 1.206 20.655 1.296 20.655H4.212C4.302 20.655 4.374 20.691 4.428 20.763C4.5 20.817 4.536 20.889 4.536 20.979V21.384C4.536 22.104 4.851 22.716 5.481 23.22C6.111 23.706 6.975 23.949 8.073 23.949C8.991 23.949 9.666 23.751 10.098 23.355C10.548 22.941 10.773 22.437 10.773 21.843C10.773 21.411 10.638 21.051 10.368 20.763C10.098 20.457 9.72 20.196 9.234 19.98C8.766 19.746 8.019 19.431 6.993 19.035C5.823 18.621 4.842 18.198 4.05 17.766C3.258 17.334 2.583 16.749 2.025 16.011C1.485 15.255 1.215 14.328 1.215 13.23C1.215 11.844 1.629 10.701 2.457 9.801C3.303 8.883 4.437 8.289 5.859 8.019C5.949 7.983 5.994 7.929 5.994 7.857L5.94 5.886C5.94 5.796 5.967 5.724 6.021 5.67C6.093 5.598 6.174 5.562 6.264 5.562H8.964C9.054 5.562 9.126 5.598 9.18 5.67C9.252 5.724 9.288 5.796 9.288 5.886L9.261 7.911C9.261 7.983 9.306 8.037 9.396 8.073C10.89 8.379 12.078 9.036 12.96 10.044C13.842 11.034 14.283 12.249 14.283 13.689V14.094C14.283 14.184 14.247 14.265 14.175 14.337C14.121 14.391 14.049 14.418 13.959 14.418H11.016C10.926 14.418 10.845 14.391 10.773 14.337C10.719 14.265 10.692 14.184 10.692 14.094V13.878C10.692 13.122 10.395 12.483 9.801 11.961C9.207 11.421 8.397 11.151 7.371 11.151C6.561 11.151 5.931 11.331 5.481 11.691C5.031 12.051 4.806 12.546 4.806 13.176C4.806 13.626 4.932 14.004 5.184 14.31C5.454 14.616 5.85 14.895 6.372 15.147C6.894 15.399 7.704 15.723 8.802 16.119C10.008 16.569 10.962 16.974 11.664 17.334C12.366 17.694 12.996 18.234 13.554 18.954C14.112 19.674 14.391 20.601 14.391 21.735Z" fill="#5DA68B"/>
</svg>
