<?xml version="1.0" encoding="utf-8"?>
<!-- Generator: Adobe Illustrator 24.3.0, SVG Export Plug-In . SVG Version: 6.00 Build 0)  -->
<svg version="1.1" xmlns="http://www.w3.org/2000/svg" xmlns:xlink="http://www.w3.org/1999/xlink" x="0px" y="0px"
	 viewBox="0 0 98 98" style="enable-background:new 0 0 98 98;" xml:space="preserve">
<style type="text/css">
	.st0{display:none;}
	.st1{display:inline;fill:#5DA68B;}
	.st2{display:inline;}
	.st3{fill:#5DA68B;}
</style>
<g id="Layer_7">
</g>
<g id="Layer_1_copy_4" class="st0">
	<circle class="st1" cx="49" cy="50.53" r="49"/>
	<g class="st2">
		<path d="M75.32,35.71c-3.7-14.73-18.64-23.67-33.36-19.97c-11.51,2.89-19.87,12.84-20.73,24.67c-8.17,1.35-13.71,9.07-12.36,17.24
			c1.2,7.27,7.49,12.59,14.86,12.56h12.5v-5h-12.5c-5.52,0-10-4.48-10-10c0-5.52,4.48-10,10-10c1.38,0,2.5-1.12,2.5-2.5
			C26.21,30.28,36.28,20.2,48.7,20.19c10.76-0.01,20.01,7.59,22.1,18.15c0.21,1.05,1.06,1.86,2.12,2
			c6.83,0.97,11.58,7.3,10.61,14.14c-0.87,6.14-6.11,10.71-12.31,10.74h-10v5h10c9.66-0.03,17.47-7.89,17.44-17.55
			C88.64,44.61,83.13,37.62,75.32,35.71z"/>
		<path d="M46.95,45.93l-10,10l3.52,3.52l5.75-5.72V77.7h5V53.73l5.72,5.72l3.52-3.52l-10-10C49.5,44.96,47.92,44.96,46.95,45.93z"
			/>
	</g>
</g>
<g id="Layer_1" class="st0">
	<circle class="st1" cx="49" cy="49" r="49"/>
</g>
<g id="Layer_1_copy" class="st0">
	<circle class="st1" cx="49" cy="49" r="49"/>
</g>
<g id="Layer_1_copy_3">
	<g>
		<path class="st3" d="M49,43.3c2.91,0,5.28-2.37,5.28-5.28c0-0.64-0.11-1.27-0.34-1.86h-9.88c-0.23,0.6-0.34,1.22-0.34,1.86
			C43.72,40.94,46.09,43.3,49,43.3z"/>
		<path class="st3" d="M37.72,40.95c0.27,1.04,0.69,2.04,1.24,2.98c0.46,0.77,0.33,1.76-0.31,2.4l-1.37,1.37l2.04,2.04l1.37-1.37
			c0.64-0.64,1.62-0.76,2.4-0.3c0.94,0.55,1.95,0.97,2.98,1.24c0.87,0.23,1.48,1.01,1.48,1.91v1.93h2.89v-1.93
			c0-0.9,0.61-1.68,1.48-1.91c1.04-0.27,2.04-0.69,2.98-1.24c0.78-0.46,1.76-0.33,2.4,0.31l1.37,1.37l2.04-2.05l-1.37-1.37
			c-0.64-0.64-0.76-1.62-0.3-2.4c0.55-0.94,0.97-1.95,1.24-2.98c0.23-0.87,1.01-1.48,1.91-1.48h1.93v-2.89h-1.93
			c-0.9,0-1.68-0.61-1.91-1.48c-0.27-1.04-0.69-2.04-1.24-2.98c-0.46-0.77-0.33-1.76,0.31-2.4l1.37-1.37l-2.05-2.04l-1.37,1.37
			c-0.64,0.64-1.62,0.76-2.4,0.3c-0.94-0.55-1.94-0.97-2.98-1.24c-0.87-0.23-1.48-1.01-1.48-1.91v-1.93h-2.89v1.93
			c0,0.9-0.61,1.68-1.48,1.91c-1.04,0.27-2.04,0.69-2.98,1.24c-0.77,0.46-1.76,0.33-2.4-0.31l-1.37-1.37l-2.04,2.04l1.37,1.37
			c0.64,0.64,0.76,1.62,0.3,2.4c-0.55,0.94-0.97,1.94-1.24,2.98c-0.23,0.87-1.01,1.48-1.91,1.48h-1.93v2.89h1.93
			C36.71,39.47,37.5,40.08,37.72,40.95z M49,29.63c4.63,0,8.39,3.76,8.39,8.39s-3.76,8.39-8.39,8.39s-8.39-3.76-8.39-8.39
			S44.37,29.63,49,29.63z"/>
		<path class="st3" d="M47.22,33.05h3.55C49.65,32.65,48.35,32.65,47.22,33.05z"/>
		<path class="st3" d="M71.33,36.58h-3.27v4.86c0,1.09-0.88,1.97-1.97,1.97h-2.46c-0.14,0.39-0.3,0.77-0.48,1.14l1.74,1.74
			c0.37,0.37,0.58,0.87,0.58,1.39c0,0.53-0.21,1.02-0.58,1.39l-4.83,4.83c-0.77,0.77-2.02,0.77-2.79,0l-1.74-1.74
			c-0.38,0.17-0.76,0.33-1.14,0.48v2.46c0,1.09-0.88,1.97-1.97,1.97h-6.84c-1.09,0-1.97-0.88-1.97-1.97v-2.46
			c-0.39-0.14-0.77-0.3-1.14-0.48l-1.74,1.74c-0.74,0.75-2.04,0.75-2.79,0l-4.83-4.83c-0.37-0.37-0.58-0.87-0.58-1.39
			c0-0.53,0.21-1.02,0.58-1.39l1.74-1.74c-0.17-0.38-0.33-0.76-0.48-1.14h-2.46c-1.09,0-1.97-0.89-1.97-1.97v-4.86h-3.27
			c-0.17,0-0.31,0.14-0.31,0.31v24.23h12.38c1.09,0,1.97,0.88,1.97,1.97c0,0.8,0.65,1.45,1.45,1.45h13.67c0.8,0,1.45-0.65,1.45-1.45
			c0-1.09,0.88-1.97,1.97-1.97h12.38V36.89C71.64,36.72,71.5,36.58,71.33,36.58z"/>
		<path class="st3" d="M49,0C21.94,0,0,21.94,0,49s21.94,49,49,49s49-21.94,49-49S76.06,0,49,0z M49,72.2
			c-0.63,0-1.14-0.51-1.14-1.14s0.51-1.14,1.14-1.14s1.14,0.51,1.14,1.14S49.63,72.2,49,72.2z M79,65.94c0,3.91-3.19,7.1-7.1,7.1
			H54.13c-1.09,0-1.97-0.88-1.97-1.97c0-1.09,0.88-1.97,1.97-1.97H71.9c1.74,0,3.15-1.42,3.15-3.15v-0.88h-14.2
			c-0.8,2.04-2.78,3.42-5.02,3.42H42.16c-2.24,0-4.22-1.38-5.02-3.42h-14.2v0.88c0,1.74,1.42,3.15,3.15,3.15h17.77
			c1.09,0,1.97,0.88,1.97,1.97c0,1.09-0.89,1.97-1.97,1.97H26.1c-3.91,0-7.1-3.19-7.1-7.1v-2.85c0-1.09,0.89-1.97,1.97-1.97h1.44
			V36.89c0-2.34,1.91-4.25,4.25-4.25h7.7c0.14-0.39,0.3-0.77,0.48-1.14l-1.74-1.74c-0.37-0.37-0.58-0.87-0.58-1.39
			c0-0.53,0.21-1.02,0.58-1.39l4.83-4.83c0.75-0.75,2.04-0.75,2.79,0l1.74,1.74c0.38-0.17,0.76-0.33,1.14-0.48v-2.46
			c0-1.09,0.89-1.97,1.97-1.97h6.84c1.09,0,1.97,0.89,1.97,1.97v2.46c0.39,0.14,0.77,0.3,1.14,0.48l1.74-1.74
			c0.77-0.77,2.02-0.77,2.79,0l4.83,4.83c0.37,0.37,0.58,0.87,0.58,1.39c0,0.53-0.21,1.02-0.58,1.4l-1.74,1.74
			c0.17,0.38,0.33,0.76,0.48,1.14h7.7c2.34,0,4.25,1.91,4.25,4.25v24.23h1.45c1.09,0,1.97,0.88,1.97,1.97V65.94z"/>
	</g>
</g>
<g id="Layer_1_copy_2" class="st0">
	<circle class="st1" cx="49" cy="49" r="49"/>
	<g class="st2">
		<path d="M67.64,74.04c0,2.95-2.4,5.34-5.34,5.34s-5.34-2.4-5.34-5.34c0-2.12,1.24-3.95,3.03-4.82V40.26
			c0-1.28,1.03-2.31,2.31-2.31c1.28,0,2.31,1.03,2.31,2.31v28.97C66.4,70.09,67.64,71.92,67.64,74.04z M27.79,23.08
			c0,3.5-2.85,6.35-6.35,6.35c-3.5,0-6.35-2.85-6.35-6.35c0-3.5,2.85-6.35,6.35-6.35C24.94,16.73,27.79,19.58,27.79,23.08z
			 M23.17,23.08c0-0.96-0.78-1.73-1.73-1.73c-0.96,0-1.73,0.78-1.73,1.73c0,0.96,0.78,1.73,1.73,1.73
			C22.39,24.81,23.17,24.03,23.17,23.08z M44.85,41.93c-0.98-0.81-2.44-0.67-3.25,0.31c-3.13,3.79-9.34,1.58-9.34-3.35V32.1
			c0-4.93,6.2-7.15,9.34-3.35c0.81,0.98,2.27,1.12,3.25,0.31c0.98-0.81,1.12-2.27,0.31-3.25c-1.89-2.29-4.67-3.6-7.63-3.6
			c-5.45,0-9.89,4.44-9.89,9.89v6.79c0,5.45,4.44,9.89,9.89,9.89c2.96,0,5.74-1.31,7.63-3.6C45.98,44.2,45.84,42.74,44.85,41.93z
			 M83.09,27.12c0,1.28-1.03,2.31-2.31,2.31h-8.81v9.82h5.92c1.28,0,2.31,1.03,2.31,2.31c0,1.28-1.03,2.31-2.31,2.31h-5.92v9.82H75
			c1.28,0,2.31,1.03,2.31,2.31c0,1.28-1.03,2.31-2.31,2.31h-3.03v5.21c2.95,2.7,4.62,6.48,4.62,10.52c0,7.88-6.41,14.29-14.29,14.29
			S48,81.92,48,74.04c0-4.05,1.67-7.82,4.62-10.52V26.4c0-5.33,4.34-9.67,9.67-9.67c4.79,0,8.78,3.5,9.54,8.08h8.94
			C82.05,24.81,83.09,25.85,83.09,27.12z M71.97,74.04c0-3-1.36-5.78-3.73-7.63c-0.56-0.44-0.89-1.11-0.89-1.82V26.4
			c0-2.79-2.27-5.05-5.05-5.05c-2.79,0-5.05,2.27-5.05,5.05v38.19c0,0.71-0.33,1.38-0.89,1.82c-2.37,1.85-3.73,4.63-3.73,7.63
			c0,5.33,4.34,9.67,9.67,9.67S71.97,79.38,71.97,74.04z"/>
	</g>
</g>
<g id="Layer_1_copy_5" class="st0">
	<circle class="st1" cx="49" cy="49" r="49"/>
	<g class="st2">
		<g>
			<path d="M42.43,30.76h17.95v3.99H42.43V30.76z"/>
			<path d="M42.43,41.62h17.95v3.99H42.43V41.62z"/>
			<path d="M42.43,52.49h17.95v3.99H42.43V52.49z"/>
			<path d="M34.22,30.54c-1.04,0-2.04,0.92-2,2c0.05,1.08,0.88,2,2,2c1.04,0,2.04-0.92,2-2C36.16,31.46,35.34,30.54,34.22,30.54z"/>
			<path d="M34.22,41.62c-1.04,0-2.04,0.92-2,2c0.05,1.08,0.88,2,2,2c1.04,0,2.04-0.92,2-2C36.16,42.54,35.34,41.62,34.22,41.62z"/>
			<path d="M34.22,52.7c-1.04,0-2.04,0.92-2,2c0.05,1.08,0.88,2,2,2c1.04,0,2.04-0.92,2-2C36.16,53.62,35.34,52.7,34.22,52.7z"/>
			<path d="M34.22,63.78c-1.04,0-2.04,0.92-2,2c0.05,1.08,0.88,2,2,2c1.04,0,2.04-0.92,2-2C36.16,64.7,35.34,63.78,34.22,63.78z"/>
			<path d="M89.13,57.26l-2.56-3.06l-2.03,1.7c-2.68-3.46-6.87-5.68-11.58-5.68c-0.38,0-0.75,0.01-1.12,0.04V15.94H21.13v67.28
				h50.71v-3.75c0.37,0.03,0.74,0.04,1.12,0.04c8.08,0,14.65-6.57,14.65-14.65c0-1.92-0.37-3.76-1.05-5.45L89.13,57.26z
				 M67.85,79.22H25.12V19.93h42.73v31.2c-5.11,1.91-8.88,6.6-9.46,12.22H42.43v3.99h16.1c0.89,5.18,4.51,9.44,9.32,11.24
				L67.85,79.22L67.85,79.22z M83.62,64.86c0,5.88-4.78,10.66-10.66,10.66c-5.88,0-10.66-4.78-10.66-10.66
				c0-5.88,4.78-10.66,10.66-10.66c3.47,0,6.57,1.67,8.51,4.25l-8.29,6.93l-5.97-4.79l-2.5,3.11l8.52,6.83l10.04-8.39
				C83.5,63.02,83.62,63.93,83.62,64.86z"/>
		</g>
	</g>
</g>
</svg>
