<?xml version="1.0" encoding="utf-8"?>
<!-- Generator: Adobe Illustrator 16.0.0, SVG Export Plug-In . SVG Version: 6.00 Build 0)  -->
<!DOCTYPE svg PUBLIC "-//W3C//DTD SVG 1.0//EN" "http://www.w3.org/TR/2001/REC-SVG-20010904/DTD/svg10.dtd">
<svg version="1.0" xmlns="http://www.w3.org/2000/svg" xmlns:xlink="http://www.w3.org/1999/xlink" x="0px" y="0px" width="536.5px"
	 height="147.5px" viewBox="0 0 536.5 147.5" enable-background="new 0 0 536.5 147.5" xml:space="preserve">
<g id="Layer_1">
	<g>
		<g>
			<polygon fill="#7EBFAD" points="78.254,36.692 47.498,53.66 47.498,62.993 110.705,98.627 78.254,118.143 23.74,87.598 
				23.74,104.142 78.254,133.838 132.765,103.719 132.765,94.81 69.982,59.599 78.254,54.083 132.765,85.265 132.765,66.811 			"/>
		</g>
		<polygon fill="#5DA68B" points="23.74,39.661 23.74,76.145 79.572,106.688 92.039,98.204 39.014,67.66 39.014,48.994 
			79.572,25.237 132.765,55.781 132.765,39.237 78.254,8.269 		"/>
	</g>
	
		<text transform="matrix(1 0 0 1 211.7305 103.5029)" display="none" fill="#5DA68B" font-family="'adineuePRO-Bold'" font-size="26" letter-spacing="9">HEALTH.COM</text>
</g>
<g id="Layer_2">
	<g>
		<g>
			<g>
				<path fill="#727372" d="M155.896,57.373h6.98c0.135,2.342,1.485,4.684,5.674,4.684c3.512,0,5.313-1.396,5.313-3.333
					c0-2.386-3.016-3.017-6.529-3.782c-4.908-1.171-10.896-2.613-10.896-9.952c0-5.404,4.188-9.412,11.572-9.412
					c7.521,0,11.664,4.097,12.113,10.132h-7.024c-0.135-2.477-1.485-4.458-5.269-4.458c-2.793,0-4.639,1.126-4.639,3.153
					c0,2.611,3.063,3.332,6.574,4.143c5.045,1.125,11.078,2.387,11.078,9.322c0,5.628-4.412,9.727-12.473,9.727
					C160.58,67.595,156.301,63.722,155.896,57.373z"/>
				<path fill="#727372" d="M186.578,67.01V36.163h6.98V67.01H186.578z"/>
				<path fill="#727372" d="M200.454,36.163h6.98v24.452h14.32v6.395h-21.301V36.163z"/>
				<path fill="#727372" d="M232.117,67.01l-10.672-30.847h7.521l7.61,23.326l7.609-23.326h7.206L240.674,67.01H232.117z"/>
				<path fill="#727372" d="M255.644,36.163h22.562v6.304h-15.581v5.81h14.41v6.125h-14.41v6.304h15.626v6.304h-22.606V36.163z"/>
				<path fill="#727372" d="M291.592,67.01h-6.98V36.163h13.148c6.575,0,10.629,4.233,10.629,10.267
					c0,4.819-3.198,8.826-8.422,9.863l9.817,10.717h-9.097l-9.096-10.492V67.01z M291.592,42.557v8.241h4.908
					c3.017,0,4.863-1.711,4.863-4.097c0-2.387-1.531-4.144-4.639-4.144H291.592z"/>
				<path fill="#727372" d="M332.077,51.519c0,5.448,3.964,9.592,9.412,9.592c3.783,0,6.665-1.982,8.422-4.999l5.448,3.782
					c-2.972,4.864-7.521,7.746-13.779,7.746c-9.503,0-16.618-7.07-16.618-16.122c0-8.962,7.071-15.987,16.438-15.987
					c6.079,0,10.897,2.522,13.825,7.701l-5.539,3.828c-1.802-2.973-4.504-5.044-8.421-5.044
					C336.041,42.017,332.077,46.205,332.077,51.519z"/>
				<path fill="#727372" d="M367.472,67.01h-6.98V36.163h13.15c6.574,0,10.626,4.233,10.626,10.267c0,4.819-3.196,8.826-8.421,9.863
					l9.817,10.717h-9.097l-9.096-10.492V67.01z M367.472,42.557v8.241h4.908c3.018,0,4.863-1.711,4.863-4.097
					c0-2.387-1.531-4.144-4.639-4.144H367.472z"/>
				<path fill="#727372" d="M397.978,67.01V55.481l-11.214-19.318h7.701l7.114,12.969l7.161-12.969h7.476l-11.214,19.364V67.01
					H397.978z"/>
				<path fill="#727372" d="M417.992,57.373h6.979c0.136,2.342,1.487,4.684,5.675,4.684c3.513,0,5.313-1.396,5.313-3.333
					c0-2.386-3.017-3.017-6.53-3.782c-4.907-1.171-10.897-2.613-10.897-9.952c0-5.404,4.188-9.412,11.574-9.412
					c7.521,0,11.663,4.097,12.113,10.132h-7.025c-0.135-2.477-1.486-4.458-5.269-4.458c-2.792,0-4.638,1.126-4.638,3.153
					c0,2.611,3.062,3.332,6.574,4.143c5.043,1.125,11.078,2.387,11.078,9.322c0,5.628-4.413,9.727-12.475,9.727
					C422.675,67.595,418.397,63.722,417.992,57.373z"/>
				<path fill="#727372" d="M455.492,67.01V42.557h-9.188v-6.394h25.354v6.394h-9.188V67.01H455.492z"/>
				<path fill="#727372" d="M492.014,61.696H479.9l-1.757,5.313h-7.159l10.897-30.847h8.556l10.854,30.847h-7.521L492.014,61.696z
					 M485.935,43.458l-4.008,12.068h8.016L485.935,43.458z"/>
				<path fill="#727372" d="M505.545,36.163h6.98v24.452h14.319v6.395h-21.3V36.163z"/>
			</g>
			<path fill="#727372" d="M155.896,57.373h6.98c0.135,2.342,1.485,4.684,5.674,4.684c3.512,0,5.313-1.396,5.313-3.333
				c0-2.386-3.016-3.017-6.529-3.782c-4.908-1.171-10.896-2.613-10.896-9.952c0-5.404,4.188-9.412,11.572-9.412
				c7.521,0,11.664,4.097,12.113,10.132h-7.024c-0.135-2.477-1.485-4.458-5.269-4.458c-2.793,0-4.639,1.126-4.639,3.153
				c0,2.611,3.063,3.332,6.574,4.143c5.045,1.125,11.078,2.387,11.078,9.322c0,5.628-4.412,9.727-12.473,9.727
				C160.58,67.595,156.301,63.722,155.896,57.373z"/>
		</g>
		<g>
			<path fill="#5DA68B" d="M261.984,91.599h-9.507v8.786h-5.081V77.924h5.081v9.016h9.507v-9.016h5.082v22.461h-5.082V91.599z"/>
			<path fill="#5DA68B" d="M283.014,77.924h16.425v4.59h-11.346v4.228h10.494V91.2h-10.494v4.587h11.38v4.598h-16.459V77.924z"/>
			<path fill="#5DA68B" d="M328.491,96.509h-8.818l-1.28,3.876h-5.215l7.938-22.461h6.225l7.906,22.461h-5.481L328.491,96.509z
				 M324.064,83.236l-2.921,8.788h5.838L324.064,83.236z"/>
			<path fill="#5DA68B" d="M349.206,77.924h5.083v17.804h10.424v4.657h-15.507V77.924z"/>
			<path fill="#5DA68B" d="M381.848,100.385V82.579h-6.689v-4.655h18.458v4.655h-6.689v17.806H381.848z"/>
			<path fill="#5DA68B" d="M422.315,91.599h-9.507v8.786h-5.084V77.924h5.084v9.016h9.507v-9.016h5.081v22.461h-5.081V91.599z"/>
		</g>
	</g>
</g>
<g id="Protecting_The_House">
	<g>
		<g>
			<path fill="#727372" d="M230.947,119.323v3.247h-2.635v-11.644h5.015c2.651,0,4.147,1.853,4.147,4.113
				c0,2.38-1.648,4.283-4.386,4.283H230.947z M230.947,113.34v3.57h2.074c1.121,0,1.802-0.748,1.802-1.802
				c0-1.055-0.663-1.769-1.887-1.769H230.947z"/>
			<path fill="#727372" d="M241.776,122.57v-8.72h2.363v1.189c0.578-0.799,1.444-1.309,2.532-1.309v2.38
				c-1.733,0-2.516,0.969-2.516,2.481v3.978H241.776z"/>
			<path fill="#727372" d="M259.541,118.235c0,2.533-2.006,4.539-4.692,4.539c-2.686,0-4.674-1.989-4.674-4.539
				c0-2.532,2.006-4.555,4.674-4.555C257.535,113.681,259.541,115.686,259.541,118.235z M252.503,118.235
				c0,1.395,0.97,2.431,2.295,2.431c1.326,0,2.396-1.036,2.396-2.431c0-1.394-1.02-2.413-2.346-2.413
				C253.523,115.822,252.503,116.842,252.503,118.235z"/>
			<path fill="#727372" d="M268.874,113.851v2.107h-2.142v3.502c0,0.781,0.356,1.088,1.155,1.088h0.986v2.022h-1.156
				c-2.312,0-3.349-1.037-3.349-2.992v-3.62h-1.258v-2.107h1.258v-2.244h2.363v2.244H268.874z"/>
			<path fill="#727372" d="M276.999,122.774c-2.787,0-4.589-1.955-4.589-4.539c0-2.516,1.869-4.555,4.606-4.555
				c2.754,0,4.419,1.903,4.419,4.437c0,0.34-0.033,0.781-0.033,0.832h-6.664c0.255,1.105,1.088,1.819,2.313,1.819
				c1.054,0,1.818-0.459,2.312-1.156l1.768,1.088C280.28,121.976,278.938,122.774,276.999,122.774z M274.823,117.199h4.233
				c-0.256-1.055-1.105-1.581-2.058-1.581C275.895,115.618,275.13,116.213,274.823,117.199z"/>
			<path fill="#727372" d="M294.169,120.548c-0.833,1.343-2.159,2.227-4.063,2.227c-2.703,0-4.606-2.006-4.606-4.539
				c0-2.532,1.903-4.555,4.606-4.555c1.921,0,3.264,0.917,4.079,2.277l-1.853,1.156c-0.442-0.731-1.071-1.275-2.142-1.275
				c-1.377,0-2.312,0.969-2.312,2.396c0,1.429,0.935,2.414,2.312,2.414c1.07,0,1.699-0.544,2.142-1.274L294.169,120.548z"/>
			<path fill="#727372" d="M303.486,113.851v2.107h-2.142v3.502c0,0.781,0.356,1.088,1.155,1.088h0.986v2.022h-1.156
				c-2.312,0-3.349-1.037-3.349-2.992v-3.62h-1.258v-2.107h1.258v-2.244h2.363v2.244H303.486z"/>
			<path fill="#727372" d="M307.77,113.103v-2.176h2.363v2.176H307.77z M307.77,122.57v-8.72h2.363v8.72H307.77z"/>
			<path fill="#727372" d="M316.813,114.734c0.425-0.493,1.326-1.037,2.533-1.037c2.039,0,3.365,1.411,3.365,3.519v5.354h-2.346
				v-4.946c0-1.037-0.595-1.751-1.598-1.751c-1.156,0-1.921,0.73-1.921,1.938v4.76h-2.363v-8.72h2.329V114.734z"/>
			<path fill="#727372" d="M327.217,123.727l1.7-1.156c0.526,0.73,1.359,1.207,2.481,1.207c1.462,0,2.362-0.612,2.362-1.853v-0.238
				c-0.629,0.526-1.495,0.799-2.516,0.799c-2.328,0-4.334-1.887-4.334-4.368c0-2.465,2.006-4.403,4.334-4.403
				c1.156,0,2.006,0.374,2.516,0.782v-0.646h2.346v7.87c0,2.243-1.665,4.045-4.674,4.045
				C329.478,125.766,328.118,125.018,327.217,123.727z M329.206,118.134c0,1.292,1.003,2.295,2.243,2.295
				c1.343,0,2.346-1.003,2.346-2.295c0-1.258-1.02-2.295-2.346-2.295C330.209,115.839,329.206,116.876,329.206,118.134z"/>
			<path fill="#727372" d="M350.438,122.57v-9.23h-3.468v-2.413h9.57v2.413h-3.468v9.23H350.438z"/>
			<path fill="#727372" d="M363.035,114.734c0.34-0.442,1.274-1.037,2.499-1.037c2.039,0,3.365,1.411,3.365,3.519v5.354h-2.346
				v-4.946c0-1.037-0.595-1.751-1.598-1.751c-1.156,0-1.921,0.73-1.921,1.938v4.76h-2.363v-11.644h2.363V114.734z"/>
			<path fill="#727372" d="M377.688,122.774c-2.787,0-4.589-1.955-4.589-4.539c0-2.516,1.869-4.555,4.606-4.555
				c2.754,0,4.419,1.903,4.419,4.437c0,0.34-0.033,0.781-0.033,0.832h-6.664c0.255,1.105,1.088,1.819,2.313,1.819
				c1.054,0,1.818-0.459,2.312-1.156l1.768,1.088C380.97,121.976,379.627,122.774,377.688,122.774z M375.513,117.199h4.233
				c-0.256-1.055-1.105-1.581-2.058-1.581C376.584,115.618,375.819,116.213,375.513,117.199z"/>
			<path fill="#727372" d="M400.893,118.015h-4.93v4.556h-2.635v-11.644h2.635v4.674h4.93v-4.674h2.635v11.644h-2.635V118.015z"/>
			<path fill="#727372" d="M417.332,118.235c0,2.533-2.006,4.539-4.692,4.539c-2.686,0-4.674-1.989-4.674-4.539
				c0-2.532,2.006-4.555,4.674-4.555C415.326,113.681,417.332,115.686,417.332,118.235z M410.294,118.235
				c0,1.395,0.97,2.431,2.295,2.431c1.326,0,2.396-1.036,2.396-2.431c0-1.394-1.02-2.413-2.346-2.413
				C411.314,115.822,410.294,116.842,410.294,118.235z"/>
			<path fill="#727372" d="M427.395,122.57v-0.867c-0.595,0.629-1.479,1.021-2.532,1.021c-2.04,0-3.366-1.411-3.366-3.519v-5.354
				h2.346v4.946c0,1.037,0.596,1.751,1.615,1.751c1.139,0,1.921-0.731,1.921-1.938v-4.759h2.346v8.72H427.395z"/>
			<path fill="#727372" d="M436.337,119.834c0,0.526,0.357,1.173,1.615,1.189c0.884,0,1.292-0.408,1.292-0.815
				c0-1.53-5.15,0.033-5.15-3.638c0-1.581,1.394-2.822,3.604-2.822s3.604,1.139,3.739,2.89h-2.362
				c-0.034-0.629-0.289-1.104-1.343-1.104c-0.681,0-1.241,0.221-1.241,0.765c0,1.563,5.27,0.188,5.27,3.502
				c0,2.073-1.733,2.94-3.927,2.94c-2.38,0-3.842-1.241-3.893-2.906H436.337z"/>
			<path fill="#727372" d="M450.361,122.774c-2.787,0-4.589-1.955-4.589-4.539c0-2.516,1.869-4.555,4.606-4.555
				c2.754,0,4.419,1.903,4.419,4.437c0,0.34-0.033,0.781-0.033,0.832h-6.664c0.255,1.105,1.088,1.819,2.313,1.819
				c1.054,0,1.818-0.459,2.312-1.156l1.768,1.088C453.643,121.976,452.3,122.774,450.361,122.774z M448.186,117.199h4.233
				c-0.256-1.055-1.105-1.581-2.058-1.581C449.257,115.618,448.492,116.213,448.186,117.199z"/>
		</g>
		
			<line fill="#FFFFFF" stroke="#727372" stroke-width="1.0806" stroke-miterlimit="10" x1="526.182" y1="118.443" x2="463.151" y2="118.443"/>
		
			<line fill="#FFFFFF" stroke="#727372" stroke-width="1.0806" stroke-miterlimit="10" x1="218.326" y1="118.443" x2="155.296" y2="118.443"/>
	</g>
</g>
<g id="Protect_The_House" display="none">
	<g display="inline">
		<g>
			<path fill="#727372" d="M247.284,119.323v3.247h-2.635v-11.644h5.015c2.651,0,4.147,1.853,4.147,4.113
				c0,2.38-1.648,4.283-4.386,4.283H247.284z M247.284,113.34v3.57h2.074c1.121,0,1.802-0.748,1.802-1.802
				c0-1.055-0.663-1.769-1.887-1.769H247.284z"/>
			<path fill="#727372" d="M258.113,122.57v-8.72h2.363v1.189c0.578-0.799,1.444-1.309,2.532-1.309v2.38
				c-1.733,0-2.516,0.969-2.516,2.481v3.978H258.113z"/>
			<path fill="#727372" d="M275.878,118.235c0,2.533-2.006,4.539-4.692,4.539c-2.686,0-4.674-1.989-4.674-4.539
				c0-2.532,2.006-4.555,4.674-4.555C273.872,113.681,275.878,115.686,275.878,118.235z M268.84,118.235
				c0,1.395,0.97,2.431,2.295,2.431c1.326,0,2.397-1.036,2.397-2.431c0-1.394-1.021-2.413-2.347-2.413
				C269.86,115.822,268.84,116.842,268.84,118.235z"/>
			<path fill="#727372" d="M285.211,113.851v2.107h-2.142v3.502c0,0.781,0.356,1.088,1.155,1.088h0.986v2.022h-1.156
				c-2.312,0-3.349-1.037-3.349-2.992v-3.62h-1.258v-2.107h1.258v-2.244h2.363v2.244H285.211z"/>
			<path fill="#727372" d="M293.336,122.774c-2.787,0-4.589-1.955-4.589-4.539c0-2.516,1.869-4.555,4.606-4.555
				c2.754,0,4.419,1.903,4.419,4.437c0,0.34-0.033,0.781-0.033,0.832h-6.664c0.255,1.105,1.088,1.819,2.313,1.819
				c1.054,0,1.818-0.459,2.312-1.156l1.768,1.088C296.617,121.976,295.274,122.774,293.336,122.774z M291.16,117.199h4.233
				c-0.256-1.055-1.105-1.581-2.058-1.581C292.231,115.618,291.467,116.213,291.16,117.199z"/>
			<path fill="#727372" d="M310.506,120.548c-0.833,1.343-2.159,2.227-4.063,2.227c-2.703,0-4.606-2.006-4.606-4.539
				c0-2.532,1.903-4.555,4.606-4.555c1.921,0,3.264,0.917,4.079,2.277l-1.853,1.156c-0.442-0.731-1.071-1.275-2.142-1.275
				c-1.377,0-2.312,0.969-2.312,2.396c0,1.429,0.935,2.414,2.312,2.414c1.07,0,1.699-0.544,2.142-1.274L310.506,120.548z"/>
			<path fill="#727372" d="M319.823,113.851v2.107h-2.142v3.502c0,0.781,0.356,1.088,1.155,1.088h0.986v2.022h-1.156
				c-2.312,0-3.349-1.037-3.349-2.992v-3.62h-1.258v-2.107h1.258v-2.244h2.363v2.244H319.823z"/>
			<path fill="#727372" d="M334.103,122.57v-9.23h-3.468v-2.413h9.57v2.413h-3.468v9.23H334.103z"/>
			<path fill="#727372" d="M346.699,114.734c0.34-0.442,1.274-1.037,2.499-1.037c2.039,0,3.365,1.411,3.365,3.519v5.354h-2.346
				v-4.946c0-1.037-0.595-1.751-1.598-1.751c-1.156,0-1.921,0.73-1.921,1.938v4.76h-2.363v-11.644h2.363V114.734z"/>
			<path fill="#727372" d="M361.353,122.774c-2.787,0-4.589-1.955-4.589-4.539c0-2.516,1.869-4.555,4.606-4.555
				c2.754,0,4.419,1.903,4.419,4.437c0,0.34-0.033,0.781-0.033,0.832h-6.664c0.255,1.105,1.088,1.819,2.313,1.819
				c1.054,0,1.818-0.459,2.312-1.156l1.768,1.088C364.634,121.976,363.291,122.774,361.353,122.774z M359.177,117.199h4.233
				c-0.256-1.055-1.105-1.581-2.058-1.581C360.248,115.618,359.483,116.213,359.177,117.199z"/>
			<path fill="#727372" d="M384.557,118.015h-4.93v4.556h-2.635v-11.644h2.635v4.674h4.93v-4.674h2.635v11.644h-2.635V118.015z"/>
			<path fill="#727372" d="M400.996,118.235c0,2.533-2.006,4.539-4.692,4.539c-2.686,0-4.674-1.989-4.674-4.539
				c0-2.532,2.006-4.555,4.674-4.555C398.99,113.681,400.996,115.686,400.996,118.235z M393.958,118.235
				c0,1.395,0.97,2.431,2.295,2.431c1.326,0,2.396-1.036,2.396-2.431c0-1.394-1.02-2.413-2.346-2.413
				C394.979,115.822,393.958,116.842,393.958,118.235z"/>
			<path fill="#727372" d="M411.059,122.57v-0.867c-0.595,0.629-1.479,1.021-2.532,1.021c-2.04,0-3.366-1.411-3.366-3.519v-5.354
				h2.346v4.946c0,1.037,0.596,1.751,1.615,1.751c1.139,0,1.921-0.731,1.921-1.938v-4.759h2.346v8.72H411.059z"/>
			<path fill="#727372" d="M420.001,119.834c0,0.526,0.357,1.173,1.615,1.189c0.884,0,1.292-0.408,1.292-0.815
				c0-1.53-5.15,0.033-5.15-3.638c0-1.581,1.394-2.822,3.604-2.822s3.604,1.139,3.739,2.89h-2.362
				c-0.034-0.629-0.289-1.104-1.343-1.104c-0.681,0-1.241,0.221-1.241,0.765c0,1.563,5.27,0.188,5.27,3.502
				c0,2.073-1.733,2.94-3.927,2.94c-2.38,0-3.842-1.241-3.893-2.906H420.001z"/>
			<path fill="#727372" d="M434.026,122.774c-2.787,0-4.589-1.955-4.589-4.539c0-2.516,1.869-4.555,4.606-4.555
				c2.754,0,4.419,1.903,4.419,4.437c0,0.34-0.033,0.781-0.033,0.832h-6.664c0.255,1.105,1.088,1.819,2.313,1.819
				c1.054,0,1.818-0.459,2.312-1.156l1.768,1.088C437.308,121.976,435.965,122.774,434.026,122.774z M431.851,117.199h4.233
				c-0.256-1.055-1.105-1.581-2.058-1.581C432.922,115.618,432.157,116.213,431.851,117.199z"/>
		</g>
		
			<line fill="#FFFFFF" stroke="#727372" stroke-width="1.0806" stroke-miterlimit="10" x1="526.182" y1="118.443" x2="448.151" y2="118.443"/>
		
			<line fill="#FFFFFF" stroke="#727372" stroke-width="1.0806" stroke-miterlimit="10" x1="233.326" y1="118.443" x2="155.296" y2="118.443"/>
	</g>
</g>
</svg>
