<?xml version="1.0" encoding="utf-8"?>
<!-- Generator: Adobe Illustrator 24.3.0, SVG Export Plug-In . SVG Version: 6.00 Build 0)  -->
<svg version="1.1" id="Layer_1" xmlns="http://www.w3.org/2000/svg" xmlns:xlink="http://www.w3.org/1999/xlink" x="0px" y="0px"
	 viewBox="0 0 58 58" style="enable-background:new 0 0 58 58;" xml:space="preserve">
<style type="text/css">
	.st0{fill:#7EBFAD;}
	.st1{fill:#5DA68B;}
	.st2{fill:#727372;}
</style>
<g>
	<g>
		<polygon class="st0" points="29.41,10.67 18.84,16.49 18.84,19.7 40.55,31.94 29.41,38.64 10.68,28.15 10.68,33.83 29.41,44.03 
			48.13,33.69 48.13,30.63 26.57,18.53 29.41,16.64 48.13,27.35 48.13,21.01 		"/>
	</g>
	<polygon class="st1" points="10.68,11.69 10.68,24.22 29.86,34.71 34.14,31.79 15.93,21.3 15.93,14.89 29.86,6.73 48.13,17.22 
		48.13,11.54 29.41,0.9 	"/>
</g>
<g>
	<path class="st1" d="M18.84,55.67h-1.33v1.23H16.8v-3.15h0.71v1.26h1.33v-1.26h0.71v3.15h-0.71V55.67z"/>
	<path class="st1" d="M21.79,53.76h2.3v0.64H22.5v0.59h1.47v0.62H22.5v0.64h1.59v0.64h-2.31V53.76z"/>
	<path class="st1" d="M28.16,56.36h-1.24l-0.18,0.54h-0.73l1.11-3.15H28l1.11,3.15h-0.77L28.16,56.36z M27.54,54.5l-0.41,1.23h0.82
		L27.54,54.5z"/>
	<path class="st1" d="M31.06,53.76h0.71v2.49h1.46v0.65h-2.17V53.76z"/>
	<path class="st1" d="M35.64,56.9v-2.49H34.7v-0.65h2.59v0.65h-0.94v2.49H35.64z"/>
	<path class="st1" d="M41.31,55.67h-1.33v1.23h-0.71v-3.15h0.71v1.26h1.33v-1.26h0.71v3.15h-0.71V55.67z"/>
</g>
<g>
	<g>
		<path class="st2" d="M4.11,50.42h0.95c0.02,0.32,0.2,0.64,0.77,0.64c0.48,0,0.72-0.19,0.72-0.45c0-0.33-0.41-0.41-0.89-0.52
			C5,49.93,4.19,49.74,4.19,48.74c0-0.74,0.57-1.28,1.58-1.28c1.03,0,1.59,0.56,1.65,1.38H6.46c-0.02-0.34-0.2-0.61-0.72-0.61
			c-0.38,0-0.63,0.15-0.63,0.43c0,0.36,0.42,0.45,0.9,0.57c0.69,0.15,1.51,0.33,1.51,1.27c0,0.77-0.6,1.33-1.7,1.33
			C4.75,51.82,4.17,51.29,4.11,50.42z"/>
		<path class="st2" d="M8.3,51.74v-4.21h0.95v4.21H8.3z"/>
		<path class="st2" d="M10.19,47.53h0.95v3.34h1.95v0.87h-2.91V47.53z"/>
		<path class="st2" d="M14.51,51.74l-1.46-4.21h1.03l1.04,3.18l1.04-3.18h0.98l-1.46,4.21H14.51z"/>
		<path class="st2" d="M17.72,47.53h3.08v0.86h-2.13v0.79h1.97v0.84h-1.97v0.86h2.13v0.86h-3.08V47.53z"/>
		<path class="st2" d="M22.62,51.74h-0.95v-4.21h1.79c0.9,0,1.45,0.58,1.45,1.4c0,0.66-0.44,1.2-1.15,1.35l1.34,1.46h-1.24
			l-1.24-1.43V51.74z M22.62,48.4v1.12h0.67c0.41,0,0.66-0.23,0.66-0.56c0-0.33-0.21-0.57-0.63-0.57H22.62z"/>
		<path class="st2" d="M28.14,49.63c0,0.74,0.54,1.31,1.28,1.31c0.52,0,0.91-0.27,1.15-0.68l0.74,0.52
			c-0.41,0.66-1.03,1.06-1.88,1.06c-1.3,0-2.27-0.96-2.27-2.2c0-1.22,0.96-2.18,2.24-2.18c0.83,0,1.49,0.34,1.89,1.05l-0.76,0.52
			c-0.25-0.41-0.61-0.69-1.15-0.69C28.68,48.33,28.14,48.9,28.14,49.63z"/>
		<path class="st2" d="M32.97,51.74h-0.95v-4.21h1.79c0.9,0,1.45,0.58,1.45,1.4c0,0.66-0.44,1.2-1.15,1.35l1.34,1.46h-1.24
			l-1.24-1.43V51.74z M32.97,48.4v1.12h0.67c0.41,0,0.66-0.23,0.66-0.56c0-0.33-0.21-0.57-0.63-0.57H32.97z"/>
		<path class="st2" d="M37.13,51.74v-1.57l-1.53-2.63h1.05l0.97,1.77l0.98-1.77h1.02l-1.53,2.64v1.57H37.13z"/>
		<path class="st2" d="M39.86,50.42h0.95c0.02,0.32,0.2,0.64,0.77,0.64c0.48,0,0.72-0.19,0.72-0.45c0-0.33-0.41-0.41-0.89-0.52
			c-0.67-0.16-1.49-0.36-1.49-1.36c0-0.74,0.57-1.28,1.58-1.28c1.03,0,1.59,0.56,1.65,1.38H42.2c-0.02-0.34-0.2-0.61-0.72-0.61
			c-0.38,0-0.63,0.15-0.63,0.43c0,0.36,0.42,0.45,0.9,0.57c0.69,0.15,1.51,0.33,1.51,1.27c0,0.77-0.6,1.33-1.7,1.33
			C40.5,51.82,39.91,51.29,39.86,50.42z"/>
		<path class="st2" d="M44.97,51.74V48.4h-1.25v-0.87h3.46v0.87h-1.25v3.34H44.97z"/>
		<path class="st2" d="M49.95,51.01H48.3l-0.24,0.72h-0.98l1.49-4.21h1.17l1.48,4.21h-1.03L49.95,51.01z M49.13,48.53l-0.55,1.65
			h1.09L49.13,48.53z"/>
		<path class="st2" d="M51.8,47.53h0.95v3.34h1.95v0.87H51.8V47.53z"/>
	</g>
	<path class="st2" d="M4.11,50.42h0.95c0.02,0.32,0.2,0.64,0.77,0.64c0.48,0,0.72-0.19,0.72-0.45c0-0.33-0.41-0.41-0.89-0.52
		C5,49.93,4.19,49.74,4.19,48.74c0-0.74,0.57-1.28,1.58-1.28c1.03,0,1.59,0.56,1.65,1.38H6.46c-0.02-0.34-0.2-0.61-0.72-0.61
		c-0.38,0-0.63,0.15-0.63,0.43c0,0.36,0.42,0.45,0.9,0.57c0.69,0.15,1.51,0.33,1.51,1.27c0,0.77-0.6,1.33-1.7,1.33
		C4.75,51.82,4.17,51.29,4.11,50.42z"/>
</g>
</svg>
