<svg width="16" height="12" viewBox="0 0 16 12" fill="none" xmlns="http://www.w3.org/2000/svg">
<path d="M16 0H0V11H16V0Z" fill="#EEF3F8"/>
<path d="M9 0H0V7H9V0Z" fill="#41479B"/>
<path d="M16 0H9V1H16V0Z" fill="#DC251C"/>
<path d="M16 2H9V3H16V2Z" fill="#DC251C"/>
<path d="M16 4H9V5H16V4Z" fill="#DC251C"/>
<path d="M16 6H9V7H16V6Z" fill="#DC251C"/>
<path d="M16 8H0V9H16V8Z" fill="#DC251C"/>
<path d="M16 10H0V11H16V10Z" fill="#DC251C"/>
<path d="M2 1H1V2H2V1Z" fill="#C5D0EC"/>
<path d="M4 1H3V2H4V1Z" fill="#C5D0EC"/>
<path d="M6 1H5V2H6V1Z" fill="#C5D0EC"/>
<path d="M8 1H7V2H8V1Z" fill="#C5D0EC"/>
<path d="M2 3H1V4H2V3Z" fill="#C5D0EC"/>
<path d="M4 3H3V4H4V3Z" fill="#C5D0EC"/>
<path d="M6 3H5V4H6V3Z" fill="#C5D0EC"/>
<path d="M3 4H2V5H3V4Z" fill="#C5D0EC"/>
<path d="M5 4H4V5H5V4Z" fill="#C5D0EC"/>
<path d="M7 4H6V5H7V4Z" fill="#C5D0EC"/>
<path d="M3 2H2V3H3V2Z" fill="#C5D0EC"/>
<path d="M5 2H4V3H5V2Z" fill="#C5D0EC"/>
<path d="M7 2H6V3H7V2Z" fill="#C5D0EC"/>
<path d="M8 3H7V4H8V3Z" fill="#C5D0EC"/>
<path d="M2 5H1V6H2V5Z" fill="#C5D0EC"/>
<path d="M4 5H3V6H4V5Z" fill="#C5D0EC"/>
<path d="M6 5H5V6H6V5Z" fill="#C5D0EC"/>
<path d="M8 5H7V6H8V5Z" fill="#C5D0EC"/>
</svg>
